<?xml version="1.0" standalone="yes"?>
<svg xmlns="http://www.w3.org/2000/svg" width="287" height="287">
<path style="fill:#ffffff; stroke:none;" d="M0 0L0 287L287 287L287 0L0 0z"/>
<path style="fill:#e2e3e3; stroke:none;" d="M140 2C143.432 3.44031 147.3 3 151 3C147.568 1.55969 143.7 2 140 2z"/>
<path style="fill:#c2c2c4; stroke:none;" d="M140.667 3.33334C140.222 3.77786 141.278 3.72211 141.333 3.66666C141.778 3.22235 140.722 3.27771 140.667 3.33334z"/>
<path style="fill:#9d9fa0; stroke:none;" d="M142.667 3.33334C142.222 3.77786 143.278 3.72211 143.333 3.66666C143.778 3.22235 142.722 3.27771 142.667 3.33334z"/>
<path style="fill:#848687; stroke:none;" d="M144 3C145.248 3.68481 145.548 3.74878 147 4C145.752 3.31516 145.452 3.25122 144 3z"/>
<path style="fill:#636466; stroke:none;" d="M147 3C148.248 3.68481 148.548 3.74878 150 4C148.752 3.31516 148.452 3.25122 147 3z"/>
<path style="fill:#a5a6a9; stroke:none;" d="M150 3L151 4L150 3z"/>
<path style="fill:#8f9092; stroke:none;" d="M137 5C138.943 5.62177 139.949 5.43582 142 5C140.057 4.37823 139.051 4.56418 137 5z"/>
<path style="fill:#1d1d1b; stroke:none;" d="M75 170C82.1548 172.041 89.7175 175.069 96 179.09C100.208 181.783 104.084 186.246 109 187.567C113.618 188.808 119.251 188 124 188C135.389 188 146.638 187 158 187C169.27 187 187.74 190.113 188.945 174C189.582 165.487 185.997 158.53 182.54 151C178.397 141.975 174.212 132.91 169.834 124C167.308 118.858 160.744 108.932 162.647 103.015C163.426 100.591 165.58 98.6207 168.005 97.912C170.498 97.183 173.446 97.927 176 97.9853C181.03 98.1002 187.149 96.9406 192 98.3704C195.341 99.3552 198.227 102.324 201.957 101.627C207.703 100.555 208.749 91.6007 210.1 87C211.164 83.3737 211.658 78.6189 210.142 75.0394C207.543 68.9043 199.651 65.3918 195 60.9599C186.458 52.8205 180.571 42.2602 171.91 34.3002C167.049 29.8322 159.782 28.0872 155.318 23.5818C150.724 18.945 156.163 6.50479 148.775 4.31866C142.741 2.53293 134.967 6.86172 130 9.80478C115.429 18.4387 102.85 30.8332 92.3349 44C88.8066 48.418 82.4589 53.1916 81.3542 59C80.6114 62.9052 82.7675 67.0734 82.9599 71C83.5811 83.6791 84.2973 96.2649 83.9853 109C83.475 129.832 77.5915 149.512 75 170z"/>
<path style="fill:#9d9fa4; stroke:none;" d="M151 4L152 5L151 4z"/>
<path style="fill:#c8c8c9; stroke:none;" d="M134 7L137 6C135.222 5.04453 134.979 5.23373 134 7z"/>
<path style="fill:#4c4d51; stroke:none;" d="M151 5L152 6L151 5z"/>
<path style="fill:#abacb0; stroke:none;" d="M152 5L153 6L152 5z"/>
<path style="fill:#7b7c7e; stroke:none;" d="M135 6L136 7L135 6z"/>
<path style="fill:#7d7f82; stroke:none;" d="M152 6L153 7L152 6z"/>
<path style="fill:#999a9c; stroke:none;" d="M153 6L153 23C154.883 18.5135 154.883 10.4865 153 6z"/>
<path style="fill:#dedfe0; stroke:none;" d="M130 7C131.248 7.68481 131.548 7.74878 133 8C131.752 7.31516 131.452 7.25122 130 7z"/>
<path style="fill:#9a9b9d; stroke:none;" d="M133 7L134 8L133 7z"/>
<path style="fill:#606265; stroke:none;" d="M134 7L135 8L134 7z"/>
<path style="fill:#424447; stroke:none;" d="M152.333 7.66666C152.278 7.72214 152.222 8.77783 152.667 8.33334C152.722 8.27771 152.778 7.22223 152.333 7.66666z"/>
<path style="fill:#898b8e; stroke:none;" d="M130.667 8.33334C130.222 8.77789 131.278 8.72211 131.333 8.66666C131.778 8.22235 130.722 8.27771 130.667 8.33334z"/>
<path style="fill:#a6a6aa; stroke:none;" d="M129 9L130 10L129 9z"/>
<path style="fill:#545558; stroke:none;" d="M130 9L131 10L130 9z"/>
<path style="fill:#e8e8e7; stroke:none;" d="M154 9C154 13.2574 152.6 20.0291 156 23C154.909 18.4188 155.796 13.2793 154 9z"/>
<path style="fill:#a6a7a9; stroke:none;" d="M126 12L129 11C127.222 10.0445 126.979 10.2337 126 12z"/>
<path style="fill:#47484b; stroke:none;" d="M129 10L130 11L129 10z"/>
<path style="fill:#cbccce; stroke:none;" d="M125 11L126 12L125 11z"/>
<path style="fill:#0f0f11; stroke:none;" d="M151 11L151 21C152.346 17.7929 152.346 14.207 151 11z"/>
<path style="fill:#c2c3c5; stroke:none;" d="M122 14C123.58 13.3164 123.777 13.1952 125 12C123.42 12.6836 123.223 12.8048 122 14z"/>
<path style="fill:#808185; stroke:none;" d="M125 12L126 13L125 12z"/>
<path style="fill:#525256; stroke:none;" d="M124 13L125 14L124 13z"/>
<path style="fill:#bcbdc0; stroke:none;" d="M121 14L122 15L121 14z"/>
<path style="fill:#818287; stroke:none;" d="M122 14L123 15L122 14z"/>
<path style="fill:#cbccce; stroke:none;" d="M119 15L120 16L119 15z"/>
<path style="fill:#9b9da0; stroke:none;" d="M120 15L121 16L120 15z"/>
<path style="fill:#636568; stroke:none;" d="M121 15L122 16L121 15z"/>
<path style="fill:#909295; stroke:none;" d="M119 16L120 17L119 16z"/>
<path style="fill:#c5c6c8; stroke:none;" d="M116 17L116 19C117.635 18.455 117.455 18.6351 118 17L116 17z"/>
<path style="fill:#898b8e; stroke:none;" d="M118 17L119 18L118 17z"/>
<path style="fill:#66686b; stroke:none;" d="M117 18L118 19L117 18z"/>
<path style="fill:#b9b9ba; stroke:none;" d="M115 19L116 20L115 19z"/>
<path style="fill:#636567; stroke:none;" d="M116 19L117 20L116 19z"/>
<path style="fill:#a4a4a6; stroke:none;" d="M114 20L115 21L114 20z"/>
<path style="fill:#4e4f50; stroke:none;" d="M115 20L116 21L115 20z"/>
<path style="fill:#a5a6a9; stroke:none;" d="M113 21L114 22L113 21z"/>
<path style="fill:#c8c9cb; stroke:none;" d="M111 22L112 23L111 22z"/>
<path style="fill:#9a9c9e; stroke:none;" d="M112 22L113 23L112 22z"/>
<path style="fill:#d1d2d3; stroke:none;" d="M110 23L111 24L110 23z"/>
<path style="fill:#8e8f92; stroke:none;" d="M111 23L112 24L111 23z"/>
<path style="fill:#bebfc1; stroke:none;" d="M154 23C155.248 23.6848 155.548 23.7488 157 24C155.752 23.3152 155.452 23.2512 154 23z"/>
<path style="fill:#c5c5c7; stroke:none;" d="M109 24L110 25L109 24z"/>
<path style="fill:#8f9093; stroke:none;" d="M110 24L111 25L110 24z"/>
<path style="fill:#9a9b9f; stroke:none;" d="M155.667 24.3333C155.222 24.7778 156.278 24.7222 156.333 24.6667C156.778 24.2223 155.722 24.2777 155.667 24.3333z"/>
<path style="fill:#cccccd; stroke:none;" d="M157.667 24.3333C157.222 24.7778 158.278 24.7222 158.333 24.6667C158.778 24.2223 157.722 24.2777 157.667 24.3333z"/>
<path style="fill:#c1c1c3; stroke:none;" d="M108 25L109 26L108 25z"/>
<path style="fill:#818285; stroke:none;" d="M109 25L110 26L109 25z"/>
<path style="fill:#59595c; stroke:none;" d="M157.667 25.3333C157.222 25.7779 158.278 25.7221 158.333 25.6667C158.778 25.2224 157.722 25.2777 157.667 25.3333z"/>
<path style="fill:#aaabac; stroke:none;" d="M159.667 25.3333C159.222 25.7779 160.278 25.7221 160.333 25.6667C160.778 25.2224 159.722 25.2777 159.667 25.3333z"/>
<path style="fill:#c6c7c7; stroke:none;" d="M107 26L108 27L107 26z"/>
<path style="fill:#7d7e81; stroke:none;" d="M108 26L109 27L108 26z"/>
<path style="fill:#4e4f50; stroke:none;" d="M160 26L161 27L160 26z"/>
<path style="fill:#999a9c; stroke:none;" d="M161 26L162 27L161 26z"/>
<path style="fill:#b6b7b8; stroke:none;" d="M106 27L107 28L106 27z"/>
<path style="fill:#717274; stroke:none;" d="M107 27L108 28L107 27z"/>
<path style="fill:#929294; stroke:none;" d="M162.667 27.3333C162.222 27.7778 163.278 27.7221 163.333 27.6667C163.778 27.2224 162.722 27.2777 162.667 27.3333z"/>
<path style="fill:#dadadb; stroke:none;" d="M164.667 27.3333C164.222 27.7778 165.278 27.7221 165.333 27.6667C165.778 27.2224 164.722 27.2777 164.667 27.3333z"/>
<path style="fill:#c1c1c4; stroke:none;" d="M105 28L106 29L105 28z"/>
<path style="fill:#67686b; stroke:none;" d="M106 28L107 29L106 28z"/>
<path style="fill:#5d5d5f; stroke:none;" d="M164 28L165 29L164 28z"/>
<path style="fill:#a9a9ab; stroke:none;" d="M165 28L166 29L165 28z"/>
<path style="fill:#b9b9bc; stroke:none;" d="M104 29L105 30L104 29z"/>
<path style="fill:#67686b; stroke:none;" d="M105 29L106 30L105 29z"/>
<path style="fill:#49494b; stroke:none;" d="M165 29L166 30L165 29z"/>
<path style="fill:#c4c4c7; stroke:none;" d="M166.667 29.3333C166.222 29.7778 167.278 29.7222 167.333 29.6667C167.778 29.2224 166.722 29.2777 166.667 29.3333z"/>
<path style="fill:#c8c9cb; stroke:none;" d="M103 30L104 31L103 30z"/>
<path style="fill:#797a7d; stroke:none;" d="M104 30L105 31L104 30z"/>
<path style="fill:#656767; stroke:none;" d="M153 30L154 31L153 30z"/>
<path style="fill:#9a9d9f; stroke:none;" d="M154 30C155.248 30.6848 155.548 30.7488 157 31C155.752 30.3152 155.452 30.2512 154 30z"/>
<path style="fill:#4b4b4e; stroke:none;" d="M157 30L158 31L157 30z"/>
<path style="fill:#727377; stroke:none;" d="M167 30L168 31L167 30z"/>
<path style="fill:#a9aaad; stroke:none;" d="M168 30L169 31L168 30z"/>
<path style="fill:#cacbcc; stroke:none;" d="M102 31L103 32L102 31z"/>
<path style="fill:#8c8d8f; stroke:none;" d="M103 31L104 32L103 31z"/>
<path style="fill:#9b9b9e; stroke:none;" d="M153 31L153 38C154.059 35.4657 154.059 33.5343 153 31z"/>
<path style="fill:#e7e9ea; stroke:none;" d="M154 31L154 37C154.779 35.2309 154.912 33.9641 155 32C156.479 32.9857 156.203 33 158 33C156.457 31.7333 155.952 31.5108 154 31z"/>
<path style="fill:#a5a6aa; stroke:none;" d="M157 31L158 32L157 31z"/>
<path style="fill:#737376; stroke:none;" d="M158 31L159 32L158 31z"/>
<path style="fill:#505254; stroke:none;" d="M168 31L169 32L168 31z"/>
<path style="fill:#a7a8ac; stroke:none;" d="M169 31L170 32L169 31z"/>
<path style="fill:#eeeeef; stroke:none;" d="M170 31C171.103 32.4567 171.543 32.8966 173 34C172.101 31.8764 172.124 31.8993 170 31z"/>
<path style="fill:#c5c6c7; stroke:none;" d="M101 32L102 33L101 32z"/>
<path style="fill:#8b8c8e; stroke:none;" d="M102 32L103 33L102 32z"/>
<path style="fill:#ffffff; stroke:none;" d="M155 32L154 44C156.498 42.6368 158.488 39.2271 161.184 38.5015C165.254 37.4066 170.131 42.9274 174 44C169.2 37.3309 162.77 34.0369 155 32z"/>
<path style="fill:#a0a0a2; stroke:none;" d="M158 32C159.248 32.6848 159.548 32.7488 161 33C159.752 32.3152 159.452 32.2512 158 32z"/>
<path style="fill:#636569; stroke:none;" d="M161 32L162 33L161 32z"/>
<path style="fill:#545558; stroke:none;" d="M169 32L170 33L169 32z"/>
<path style="fill:#959598; stroke:none;" d="M170 32L171 33L170 32z"/>
<path style="fill:#919295; stroke:none;" d="M101 33L102 34L101 33z"/>
<path style="fill:#c4c5c7; stroke:none;" d="M161 33L162 34L161 33z"/>
<path style="fill:#8d8e93; stroke:none;" d="M162 33L163 34L162 33z"/>
<path style="fill:#8c8c90; stroke:none;" d="M171 33L172 34L171 33z"/>
<path style="fill:#c9c9cb; stroke:none;" d="M99 34L100 35L99 34z"/>
<path style="fill:#919396; stroke:none;" d="M100 34L101 35L100 34z"/>
<path style="fill:#a3a3a6; stroke:none;" d="M163 34L164 35L163 34z"/>
<path style="fill:#656769; stroke:none;" d="M164 34L165 35L164 34z"/>
<path style="fill:#8f9092; stroke:none;" d="M172 34L173 35L172 34z"/>
<path style="fill:#99999c; stroke:none;" d="M99 35L100 36L99 35z"/>
<path style="fill:#a2a6a6; stroke:none;" d="M164.667 35.3333C164.222 35.7778 165.278 35.7222 165.333 35.6667C165.778 35.2223 164.722 35.2777 164.667 35.3333z"/>
<path style="fill:#5c5f60; stroke:none;" d="M166 35L167 36L166 35z"/>
<path style="fill:#8d8e8d; stroke:none;" d="M173 35L174 36L173 35z"/>
<path style="fill:#a3a3a7; stroke:none;" d="M98 36L99 37L98 36z"/>
<path style="fill:#b2b5b6; stroke:none;" d="M166 36L167 37L166 36z"/>
<path style="fill:#6e7173; stroke:none;" d="M167 36L168 37L167 36z"/>
<path style="fill:#919292; stroke:none;" d="M174 36L175 37L174 36z"/>
<path style="fill:#9ea0a2; stroke:none;" d="M97 37L98 38L97 37z"/>
<path style="fill:#a1a2a4; stroke:none;" d="M160 37C161.248 37.6848 161.548 37.7488 163 38C161.752 37.3152 161.452 37.2512 160 37z"/>
<path style="fill:#c8cacb; stroke:none;" d="M167 37L168 38L167 37z"/>
<path style="fill:#95989a; stroke:none;" d="M168 37L169 38L168 37z"/>
<path style="fill:#a0a1a2; stroke:none;" d="M175 37L176 38L175 37z"/>
<path style="fill:#b3b4b3; stroke:none;" d="M96 38L97 39L96 38z"/>
<path style="fill:#4b4b4e; stroke:none;" d="M152 38L152 41C152.696 39.4463 152.696 39.5537 152 38z"/>
<path style="fill:#bebfc0; stroke:none;" d="M153 38L153 41C153.696 39.4463 153.696 39.5537 153 38z"/>
<path style="fill:#cacacb; stroke:none;" d="M159 38L160 39L159 38z"/>
<path style="fill:#76777a; stroke:none;" d="M160 38L161 39L160 38z"/>
<path style="fill:#606163; stroke:none;" d="M162 38L163 39L162 38z"/>
<path style="fill:#b1b2b2; stroke:none;" d="M163 38L164 39L163 38z"/>
<path style="fill:#9c9ea1; stroke:none;" d="M169 38L170 39L169 38z"/>
<path style="fill:#4c4d4e; stroke:none;" d="M175 38L176 39L175 38z"/>
<path style="fill:#a6a6a7; stroke:none;" d="M176 38L177 39L176 38z"/>
<path style="fill:#b2b2b2; stroke:none;" d="M95 39L96 40L95 39z"/>
<path style="fill:#959598; stroke:none;" d="M159 39L160 40L159 39z"/>
<path style="fill:#4e5050; stroke:none;" d="M163 39L164 40L163 39z"/>
<path style="fill:#b1b1b3; stroke:none;" d="M164 39C165.458 40.0811 166.248 40.4361 168 41C166.457 39.7333 165.952 39.5108 164 39z"/>
<path style="fill:#a4a5a7; stroke:none;" d="M170 39L171 40L170 39z"/>
<path style="fill:#5d5d60; stroke:none;" d="M176 39L177 40L176 39z"/>
<path style="fill:#afb0b3; stroke:none;" d="M177 39L178 40L177 39z"/>
<path style="fill:#bbbbbc; stroke:none;" d="M94 40L95 41L94 40z"/>
<path style="fill:#a5a6a8; stroke:none;" d="M158 40L159 41L158 40z"/>
<path style="fill:#4b4b4d; stroke:none;" d="M159 40L160 41L159 40z"/>
<path style="fill:#b6b7b9; stroke:none;" d="M171 40L172 41L171 40z"/>
<path style="fill:#47484a; stroke:none;" d="M172 40L173 41L172 40z"/>
<path style="fill:#7f8185; stroke:none;" d="M177 40L178 41L177 40z"/>
<path style="fill:#c8c8c9; stroke:none;" d="M93 41L94 42L93 41z"/>
<path style="fill:#606061; stroke:none;" d="M94 41L95 42L94 41z"/>
<path style="fill:#95969a; stroke:none;" d="M152 41L152 44C152.696 42.4463 152.696 42.5537 152 41z"/>
<path style="fill:#e8e9e8; stroke:none;" d="M153 41L152 47L155 46C154.52 44.0404 154.062 42.6932 153 41z"/>
<path style="fill:#939496; stroke:none;" d="M157.333 41.6667C157.278 41.7222 157.222 42.7778 157.667 42.3333C157.722 42.2778 157.778 41.2222 157.333 41.6667z"/>
<path style="fill:#5e6062; stroke:none;" d="M158 41L159 42L158 41z"/>
<path style="fill:#7d7f81; stroke:none;" d="M167 41L168 42L167 41z"/>
<path style="fill:#b9bbbc; stroke:none;" d="M168 41L169 42L168 41z"/>
<path style="fill:#a7a9ac; stroke:none;" d="M172 41L173 42L172 41z"/>
<path style="fill:#4b4e50; stroke:none;" d="M173 41L174 42L173 41z"/>
<path style="fill:#8b8d92; stroke:none;" d="M178 41L179 42L178 41z"/>
<path style="fill:#bdbdbe; stroke:none;" d="M92 42L93 43L92 42z"/>
<path style="fill:#5b5b5d; stroke:none;" d="M93 42L94 43L93 42z"/>
<path style="fill:#97989b; stroke:none;" d="M169 42L170 43L169 42z"/>
<path style="fill:#b2b3b3; stroke:none;" d="M173 42L174 43L173 42z"/>
<path style="fill:#606061; stroke:none;" d="M174 42L175 43L174 42z"/>
<path style="fill:#999b9e; stroke:none;" d="M179 42L180 43L179 42z"/>
<path style="fill:#818184; stroke:none;" d="M92 43L93 44L92 43z"/>
<path style="fill:#5b5c5f; stroke:none;" d="M151 43L152 44L151 43z"/>
<path style="fill:#a7a7a8; stroke:none;" d="M156 43L157 44L156 43z"/>
<path style="fill:#474849; stroke:none;" d="M157 43L158 44L157 43z"/>
<path style="fill:#88898c; stroke:none;" d="M170 43L171 44L170 43z"/>
<path style="fill:#c8c9ca; stroke:none;" d="M172 44C173.717 45.8398 174.566 46.3486 177 47L175 43L172 44z"/>
<path style="fill:#b3b3b4; stroke:none;" d="M180 43L181 44L180 43z"/>
<path style="fill:#a6a7a8; stroke:none;" d="M91 44L92 45L91 44z"/>
<path style="fill:#a9abad; stroke:none;" d="M151.333 44.6667C151.278 44.7222 151.222 45.7778 151.667 45.3333C151.722 45.2777 151.778 44.2223 151.333 44.6667z"/>
<path style="fill:#b0b1b2; stroke:none;" d="M155 44L156 45L155 44z"/>
<path style="fill:#4c4d4f; stroke:none;" d="M156 44L157 45L156 44z"/>
<path style="fill:#78787c; stroke:none;" d="M171 44L172 45L171 44z"/>
<path style="fill:#99999b; stroke:none;" d="M175 44L176 45L175 44z"/>
<path style="fill:#47484a; stroke:none;" d="M176 44L177 45L176 44z"/>
<path style="fill:#5b5c5f; stroke:none;" d="M180 44L181 45L180 44z"/>
<path style="fill:#bababc; stroke:none;" d="M181 44L182 45L181 44z"/>
<path style="fill:#ababae; stroke:none;" d="M90 45L91 46L90 45z"/>
<path style="fill:#4c4d4e; stroke:none;" d="M91 45L92 46L91 45z"/>
<path style="fill:#6d6e71; stroke:none;" d="M150 45L150 49C150.71 47.2405 150.71 46.7595 150 45z"/>
<path style="fill:#6b6d70; stroke:none;" d="M155 45L156 46L155 45z"/>
<path style="fill:#5b5d5f; stroke:none;" d="M172 45L173 46L172 45z"/>
<path style="fill:#727376; stroke:none;" d="M181 45L182 46L181 45z"/>
<path style="fill:#cececf; stroke:none;" d="M182 45L183 46L182 45z"/>
<path style="fill:#b1b2b4; stroke:none;" d="M89 46L90 47L89 46z"/>
<path style="fill:#565758; stroke:none;" d="M90 46L91 47L90 46z"/>
<path style="fill:#cfcdce; stroke:none;" d="M151 46L151 48L153 48C152.455 46.3648 152.635 46.5451 151 46z"/>
<path style="fill:#b4b5b4; stroke:none;" d="M153 46L154 47L153 46z"/>
<path style="fill:#6f7171; stroke:none;" d="M154 46L155 47L154 46z"/>
<path style="fill:#4b4c4f; stroke:none;" d="M173 46L174 47L173 46z"/>
<path style="fill:#737679; stroke:none;" d="M177 46L178 47L177 46z"/>
<path style="fill:#8e8f91; stroke:none;" d="M182 46L183 47L182 46z"/>
<path style="fill:#b0b1b3; stroke:none;" d="M88 47L89 48L88 47z"/>
<path style="fill:#626366; stroke:none;" d="M89 47L90 48L89 47z"/>
<path style="fill:#6d6d6f; stroke:none;" d="M153 47L154 48L153 47z"/>
<path style="fill:#a1a5a8; stroke:none;" d="M175 47C176.45 48.6076 177.051 49.0643 179 50C177.774 47.9653 177.297 47.6736 175 47z"/>
<path style="fill:#717478; stroke:none;" d="M178 47L179 48L178 47z"/>
<path style="fill:#9fa0a2; stroke:none;" d="M183 47L184 48L183 47z"/>
<path style="fill:#b2b3b5; stroke:none;" d="M87 48L88 49L87 48z"/>
<path style="fill:#48494a; stroke:none;" d="M88 48L89 49L88 48z"/>
<path style="fill:#8f8d8f; stroke:none;" d="M151.667 48.3333C151.222 48.7778 152.278 48.7222 152.333 48.6667C152.778 48.2222 151.722 48.2778 151.667 48.3333z"/>
<path style="fill:#4f5254; stroke:none;" d="M179 48L180 49L179 48z"/>
<path style="fill:#a4a5a8; stroke:none;" d="M184 48L185 49L184 48z"/>
<path style="fill:#d0d0d1; stroke:none;" d="M86 49L87 50L86 49z"/>
<path style="fill:#7c7d80; stroke:none;" d="M87 49L88 50L87 49z"/>
<path style="fill:#757679; stroke:none;" d="M179 49L178 50C179.223 51.1952 179.42 51.3164 181 52C180.316 50.42 180.195 50.2228 179 49z"/>
<path style="fill:#66676b; stroke:none;" d="M184 49L185 50L184 49z"/>
<path style="fill:#c2c3c4; stroke:none;" d="M185 49L186 50L185 49z"/>
<path style="fill:#9e9fa1; stroke:none;" d="M86 50L87 51L86 50z"/>
<path style="fill:#8b8d8f; stroke:none;" d="M185 50L186 51L185 50z"/>
<path style="fill:#b7b9b9; stroke:none;" d="M84 51L84 53C85.6352 52.4549 85.4549 52.6352 86 51L84 51z"/>
<path style="fill:#4c4d4f; stroke:none;" d="M181 51L180 53L182 53C182 51.1467 182.3 51.6499 181 51z"/>
<path style="fill:#909193; stroke:none;" d="M186 51L187 52L186 51z"/>
<path style="fill:#a7a9aa; stroke:none;" d="M187 52L188 53L187 52z"/>
<path style="fill:#c5c6c6; stroke:none;" d="M83 53L84 54L83 53z"/>
<path style="fill:#5e6060; stroke:none;" d="M84 53L85 54L84 53z"/>
<path style="fill:#57595c; stroke:none;" d="M187 53L188 54L187 53z"/>
<path style="fill:#b3b3b7; stroke:none;" d="M188 53L189 54L188 53z"/>
<path style="fill:#c9caca; stroke:none;" d="M82 54L83 55L82 54z"/>
<path style="fill:#6d6f70; stroke:none;" d="M83 54L84 55L83 54z"/>
<path style="fill:#626267; stroke:none;" d="M188 54L189 55L188 54z"/>
<path style="fill:#b6b7ba; stroke:none;" d="M189 54L190 55L189 54z"/>
<path style="fill:#979899; stroke:none;" d="M82 55L83 56L82 55z"/>
<path style="fill:#787a7d; stroke:none;" d="M189 55L190 56L189 55z"/>
<path style="fill:#a9a9aa; stroke:none;" d="M81 56L82 57L81 56z"/>
<path style="fill:#7c7f80; stroke:none;" d="M190 56L191 57L190 56z"/>
<path style="fill:#c1c3c3; stroke:none;" d="M191 56L192 57L191 56z"/>
<path style="fill:#ededee; stroke:none;" d="M79 57L79 65C80.1614 62.2301 80.1614 59.7699 79 57z"/>
<path style="fill:#9d9ea0; stroke:none;" d="M80 57L80 63C80.9511 60.7147 80.9511 59.2853 80 57z"/>
<path style="fill:#7f8083; stroke:none;" d="M191 57L192 58L191 57z"/>
<path style="fill:#d3d2d4; stroke:none;" d="M192 57L193 58L192 57z"/>
<path style="fill:#8c8c91; stroke:none;" d="M192 58L193 59L192 58z"/>
<path style="fill:#7f8185; stroke:none;" d="M193 59L194 60L193 59z"/>
<path style="fill:#85878a; stroke:none;" d="M194 60L195 61L194 60z"/>
<path style="fill:#7c7e80; stroke:none;" d="M195 61L196 62L195 61z"/>
<path style="fill:#b8b9ba; stroke:none;" d="M196 61L197 62L196 61z"/>
<path style="fill:#666669; stroke:none;" d="M196 62C196.545 63.6352 196.365 63.4549 198 64C197.455 62.3649 197.635 62.5451 196 62z"/>
<path style="fill:#bbbbbb; stroke:none;" d="M197 62L198 63L197 62z"/>
<path style="fill:#c3c4c5; stroke:none;" d="M80.3333 63.6667C80.2779 63.7222 80.2222 64.7778 80.6667 64.3333C80.7223 64.2777 80.7778 63.2223 80.3333 63.6667z"/>
<path style="fill:#808282; stroke:none;" d="M81.3333 63.6667C81.2778 63.7222 81.2222 64.7778 81.6667 64.3333C81.7223 64.2777 81.7778 63.2223 81.3333 63.6667z"/>
<path style="fill:#cececf; stroke:none;" d="M198.667 63.3333C198.222 63.7778 199.278 63.7222 199.333 63.6667C199.778 63.2222 198.722 63.2778 198.667 63.3333z"/>
<path style="fill:#474749; stroke:none;" d="M198 64L199 65L198 64z"/>
<path style="fill:#919193; stroke:none;" d="M199 64L200 65L199 64z"/>
<path style="fill:#c2c2c3; stroke:none;" d="M81 65L81 70C81.8299 67.9695 81.8299 67.0305 81 65z"/>
<path style="fill:#8c8d8f; stroke:none;" d="M200 65L201 66L200 65z"/>
<path style="fill:#5b5c5e; stroke:none;" d="M82 66L82 70C82.7102 68.2405 82.7102 67.7595 82 66z"/>
<path style="fill:#636567; stroke:none;" d="M201 66L202 67L201 66z"/>
<path style="fill:#9a9a9d; stroke:none;" d="M202 66L203 67L202 66z"/>
<path style="fill:#909094; stroke:none;" d="M203 67L204 68L203 67z"/>
<path style="fill:#797a7e; stroke:none;" d="M204 68L205 69L204 68z"/>
<path style="fill:#dadbdc; stroke:none;" d="M205.667 68.3333C205.222 68.7778 206.278 68.7222 206.333 68.6667C206.778 68.2222 205.722 68.2778 205.667 68.3333z"/>
<path style="fill:#454749; stroke:none;" d="M205 69L206 70L205 69z"/>
<path style="fill:#a6a8aa; stroke:none;" d="M206 69L207 70L206 69z"/>
<path style="fill:#e1e1e1; stroke:none;" d="M81 70L81 75C81.8299 72.9695 81.8299 72.0305 81 70z"/>
<path style="fill:#737476; stroke:none;" d="M82.3333 70.6667C82.2778 70.7222 82.2222 71.7778 82.6667 71.3333C82.7223 71.2777 82.7777 70.2223 82.3333 70.6667z"/>
<path style="fill:#494a4c; stroke:none;" d="M206 70L207 71L206 70z"/>
<path style="fill:#a9abae; stroke:none;" d="M207 70L208 71L207 70z"/>
<path style="fill:#9ea0a3; stroke:none;" d="M208 71L209 72L208 71z"/>
<path style="fill:#a9aaac; stroke:none;" d="M82 72L82 87C83.7405 82.8523 83.7404 76.1477 82 72z"/>
<path style="fill:#afb0b3; stroke:none;" d="M209 72L210 73L209 72z"/>
<path style="fill:#6a6c6f; stroke:none;" d="M209 73L210 74L209 73z"/>
<path style="fill:#bbbcbf; stroke:none;" d="M210 73L211 74L210 73z"/>
<path style="fill:#7d7e81; stroke:none;" d="M210 74L211 75L210 74z"/>
<path style="fill:#afb0b1; stroke:none;" d="M211 74L211 77C211.696 75.4463 211.696 75.5537 211 74z"/>
<path style="fill:#d4d4d6; stroke:none;" d="M212 76L212 82C212.951 79.7147 212.951 78.2852 212 76z"/>
<path style="fill:#858689; stroke:none;" d="M211 77L211 82C211.83 79.9695 211.83 79.0305 211 77z"/>
<path style="fill:#353739; stroke:none;" d="M83 80L83 87C84.0595 84.4657 84.0595 82.5343 83 80z"/>
<path style="fill:#a0a1a3; stroke:none;" d="M211 82L211 85C211.696 83.4463 211.696 83.5537 211 82z"/>
<path style="fill:#c2c3c4; stroke:none;" d="M211.333 85.6667C211.278 85.7222 211.222 86.7778 211.667 86.3333C211.722 86.2777 211.778 85.2223 211.333 85.6667z"/>
<path style="fill:#909194; stroke:none;" d="M210 86L210 89C210.696 87.4463 210.696 87.5537 210 86z"/>
<path style="fill:#c1c1c3; stroke:none;" d="M82 87L82 109C84.2187 103.713 84.2187 92.2873 82 87z"/>
<path style="fill:#5c5e60; stroke:none;" d="M83 87L83 90C83.6961 88.4463 83.6961 88.5537 83 87z"/>
<path style="fill:#e1e2e2; stroke:none;" d="M211 87L210 91C211.303 89.3324 211.553 89.0078 211 87z"/>
<path style="fill:#4c4d4f; stroke:none;" d="M209 88L210 89L209 88z"/>
<path style="fill:#9d9da0; stroke:none;" d="M209 89L209 92C209.696 90.4463 209.696 90.5537 209 89z"/>
<path style="fill:#797a7d; stroke:none;" d="M83 90L83 106C84.8123 101.681 84.8123 94.3189 83 90z"/>
<path style="fill:#5d5d61; stroke:none;" d="M208 91L208 94C208.696 92.4463 208.696 92.5537 208 91z"/>
<path style="fill:#e5e5e6; stroke:none;" d="M209 92L209 97C209.83 94.9695 209.83 94.0305 209 92z"/>
<path style="fill:#a0a1a3; stroke:none;" d="M208 94L208 97C208.696 95.4463 208.696 95.5537 208 94z"/>
<path style="fill:#919295; stroke:none;" d="M152 96C154.34 96.5656 156.571 96.1761 159 96C156.413 94.9346 154.679 95.2185 152 96z"/>
<path style="fill:#e6e7e7; stroke:none;" d="M154 96C155.377 96.9114 156.44 97.4038 158 98C156.686 96.3821 156.123 96.3067 154 96z"/>
<path style="fill:#babbbc; stroke:none;" d="M158 96L158 98C159.635 97.455 159.455 97.6352 160 96L158 96z"/>
<path style="fill:#68696d; stroke:none;" d="M207 96L208 97L207 96z"/>
<path style="fill:#8e8e92; stroke:none;" d="M151 97L152 98L151 97z"/>
<path style="fill:#eaebeb; stroke:none;" d="M151 99C152.58 98.3164 152.777 98.1951 154 97C152.42 97.6836 152.223 97.8048 151 99z"/>
<path style="fill:#ffffff; stroke:none;" d="M171 142C168.915 126.34 151.868 113.488 157 97C151.079 98.4548 150.704 102.406 151.044 107.996C151.589 116.961 159.585 124.581 163.711 132.09C165.838 135.959 167.042 139.755 171 142z"/>
<path style="fill:#767879; stroke:none;" d="M159 97L160 98L159 97z"/>
<path style="fill:#545558; stroke:none;" d="M167 97C168.506 97.683 169.315 97.8259 171 98C169.494 97.317 168.685 97.1741 167 97z"/>
<path style="fill:#444549; stroke:none;" d="M190.667 97.3333C190.222 97.7778 191.278 97.7222 191.333 97.6667C191.778 97.2222 190.722 97.2778 190.667 97.3333z"/>
<path style="fill:#c9cbcb; stroke:none;" d="M207 97L207 99C208.635 98.455 208.455 98.6352 209 97L207 97z"/>
<path style="fill:#696a6a; stroke:none;" d="M150 98L151 99L150 98z"/>
<path style="fill:#a4a5a7; stroke:none;" d="M157 98C156.014 99.4785 156 99.2032 156 101C157.289 99.5574 157.401 99.7663 157 98z"/>
<path style="fill:#626264; stroke:none;" d="M158 98L159 99L158 98z"/>
<path style="fill:#515354; stroke:none;" d="M165 98L166 99L165 98z"/>
<path style="fill:#c3c3c4; stroke:none;" d="M166 98C167.769 98.7789 169.036 98.9124 171 99C169.231 98.2211 167.964 98.0876 166 98z"/>
<path style="fill:#97999b; stroke:none;" d="M171 98C172.248 98.6848 172.548 98.7488 174 99C172.752 98.3152 172.452 98.2512 171 98z"/>
<path style="fill:#5e5f60; stroke:none;" d="M174.667 98.3333C174.222 98.7778 175.278 98.7222 175.333 98.6667C175.778 98.2222 174.722 98.2777 174.667 98.3333z"/>
<path style="fill:#333434; stroke:none;" d="M176 98C178.613 99.0977 181.165 98.9928 184 99C181.387 97.9023 178.835 98.0072 176 98z"/>
<path style="fill:#5b5c5e; stroke:none;" d="M184 98C185.248 98.6848 185.548 98.7488 187 99C185.752 98.3152 185.452 98.2512 184 98z"/>
<path style="fill:#898a8c; stroke:none;" d="M187.667 98.3333C187.222 98.7778 188.278 98.7223 188.333 98.6667C188.778 98.2222 187.722 98.2778 187.667 98.3333z"/>
<path style="fill:#a7a8aa; stroke:none;" d="M189 98C190.506 98.683 191.315 98.8259 193 99C191.494 98.317 190.685 98.1741 189 98z"/>
<path style="fill:#75767a; stroke:none;" d="M193 98L194 99L193 98z"/>
<path style="fill:#656769; stroke:none;" d="M206 98L207 99L206 98z"/>
<path style="fill:#c4c4c5; stroke:none;" d="M150.333 99.6667C150.278 99.7222 150.222 100.778 150.667 100.333C150.722 100.278 150.778 99.2223 150.333 99.6667z"/>
<path style="fill:#555758; stroke:none;" d="M164 99L165 100L164 99z"/>
<path style="fill:#dcdcdd; stroke:none;" d="M165 99L164 101L166 101C166 99.1468 166.3 99.6499 165 99z"/>
<path style="fill:#eeefef; stroke:none;" d="M171 99C172.223 100.195 172.42 100.316 174 101C173.02 99.2167 173.092 99.4057 171 99z"/>
<path style="fill:#9e9fa2; stroke:none;" d="M174 99C177.432 100.44 181.3 100 185 100C181.568 98.5597 177.7 99 174 99z"/>
<path style="fill:#b7b8b9; stroke:none;" d="M185 99C186.248 99.6848 186.548 99.7488 188 100C186.752 99.3152 186.452 99.2512 185 99z"/>
<path style="fill:#e6e6e7; stroke:none;" d="M186 100C187.809 100.574 188.069 100.465 190 100C188.341 99.5935 187.758 99.6914 186 100z"/>
<path style="fill:#73767a; stroke:none;" d="M194 99L195 100L194 99z"/>
<path style="fill:#c3c4c5; stroke:none;" d="M206.333 99.6667C206.278 99.7222 206.222 100.778 206.667 100.333C206.722 100.278 206.778 99.2222 206.333 99.6667z"/>
<path style="fill:#69696a; stroke:none;" d="M149 100L150 101L149 100z"/>
<path style="fill:#bebdbd; stroke:none;" d="M155 100L155 105C155.83 102.969 155.83 102.031 155 100z"/>
<path style="fill:#666769; stroke:none;" d="M163 100L164 101L163 100z"/>
<path style="fill:#d5d5d6; stroke:none;" d="M174 100C177.697 101.552 182.017 101 186 101C182.303 99.4485 177.983 100 174 100z"/>
<path style="fill:#979a9c; stroke:none;" d="M195 100L196 101L195 100z"/>
<path style="fill:#5f6365; stroke:none;" d="M196 100L197 101L196 100z"/>
<path style="fill:#7c7e81; stroke:none;" d="M205 100L206 101L205 100z"/>
<path style="fill:#b3b5b6; stroke:none;" d="M149 101C149.058 103.784 149.352 106.291 150 109C150.871 106.165 150.278 103.661 149 101z"/>
<path style="fill:#e0e1e2; stroke:none;" d="M150 101L150 106C150.83 103.969 150.83 103.03 150 101z"/>
<path style="fill:#79797a; stroke:none;" d="M156 101L156 104C156.696 102.446 156.696 102.554 156 101z"/>
<path style="fill:#5d5d5f; stroke:none;" d="M162 101L163 102L162 101z"/>
<path style="fill:#dddddc; stroke:none;" d="M163 101L163 106C163.83 103.969 163.83 103.03 163 101z"/>
<path style="fill:#bfc2c3; stroke:none;" d="M196 101L197 102L196 101z"/>
<path style="fill:#9d9ea2; stroke:none;" d="M197 101C197.98 102.783 197.908 102.594 200 103C198.861 101.985 198.388 101.691 197 101z"/>
<path style="fill:#7d7e81; stroke:none;" d="M204 101L205 102L204 101z"/>
<path style="fill:#eaeaeb; stroke:none;" d="M204 104C205.457 102.897 205.897 102.457 207 101C204.876 101.899 204.899 101.876 204 104z"/>
<path style="fill:#494b4b; stroke:none;" d="M148 102L148 106C148.71 104.24 148.71 103.759 148 102z"/>
<path style="fill:#87888a; stroke:none;" d="M162 102L162 105C162.696 103.446 162.696 103.554 162 102z"/>
<path style="fill:#67686b; stroke:none;" d="M200 102C201.248 102.685 201.548 102.749 203 103C201.752 102.315 201.452 102.251 200 102z"/>
<path style="fill:#939597; stroke:none;" d="M203 102L204 103L203 102z"/>
<path style="fill:#d2d3d3; stroke:none;" d="M198 103C200.052 103.874 201.747 103.953 204 104C201.948 103.126 200.253 103.047 198 103z"/>
<path style="fill:#9fa0a1; stroke:none;" d="M156.333 104.667C156.278 104.722 156.222 105.778 156.667 105.333C156.722 105.278 156.778 104.222 156.333 104.667z"/>
<path style="fill:#d3d3d5; stroke:none;" d="M155 105C155.684 106.58 155.805 106.777 157 108C156.316 106.42 156.195 106.223 155 105z"/>
<path style="fill:#606166; stroke:none;" d="M162 105L162 108C162.696 106.446 162.696 106.554 162 105z"/>
<path style="fill:#5b5b5e; stroke:none;" d="M83 106L83 109C83.6961 107.446 83.6961 107.554 83 106z"/>
<path style="fill:#767779; stroke:none;" d="M157.333 106.667C157.278 106.722 157.222 107.778 157.667 107.333C157.722 107.278 157.778 106.222 157.333 106.667z"/>
<path style="fill:#b6b8b9; stroke:none;" d="M163 106L163 109C163.696 107.446 163.696 107.554 163 106z"/>
<path style="fill:#87898b; stroke:none;" d="M149 107L150 108L149 107z"/>
<path style="fill:#505253; stroke:none;" d="M149 108L150 109L149 108z"/>
<path style="fill:#a8a8a9; stroke:none;" d="M157 108L157 111C157.696 109.446 157.696 109.554 157 108z"/>
<path style="fill:#a8a9ab; stroke:none;" d="M82 109L82 117C83.1614 114.23 83.1614 111.77 82 109z"/>
<path style="fill:#3c3e40; stroke:none;" d="M83 109L83 115C83.9511 112.715 83.9511 111.285 83 109z"/>
<path style="fill:#929496; stroke:none;" d="M150.333 109.667C150.278 109.722 150.222 110.778 150.667 110.333C150.722 110.278 150.778 109.222 150.333 109.667z"/>
<path style="fill:#76787a; stroke:none;" d="M163 109L164 110L163 109z"/>
<path style="fill:#acadaf; stroke:none;" d="M164 109L164 112C164.696 110.446 164.696 110.554 164 109z"/>
<path style="fill:#e0dfe0; stroke:none;" d="M165.333 109.667C165.278 109.722 165.222 110.778 165.667 110.333C165.722 110.278 165.778 109.222 165.333 109.667z"/>
<path style="fill:#626365; stroke:none;" d="M150 111L151 112L150 111z"/>
<path style="fill:#cececf; stroke:none;" d="M157 111L159 116C159.375 113.581 158.693 112.782 157 111z"/>
<path style="fill:#717174; stroke:none;" d="M158 111L159 112L158 111z"/>
<path style="fill:#c5c7c6; stroke:none;" d="M165 111L165 114C165.696 112.446 165.696 112.554 165 111z"/>
<path style="fill:#b3b3b5; stroke:none;" d="M151 112L152 113L151 112z"/>
<path style="fill:#78797b; stroke:none;" d="M151 113L152 114L151 113z"/>
<path style="fill:#88888b; stroke:none;" d="M159 113L160 114L159 113z"/>
<path style="fill:#939495; stroke:none;" d="M152 114L153 115L152 114z"/>
<path style="fill:#c7c7c8; stroke:none;" d="M153 114L153 117C153.696 115.446 153.696 115.554 153 114z"/>
<path style="fill:#959898; stroke:none;" d="M165 114L166 115L165 114z"/>
<path style="fill:#4d4d4e; stroke:none;" d="M152 115L153 116L152 115z"/>
<path style="fill:#515153; stroke:none;" d="M160 115L161 116L160 115z"/>
<path style="fill:#636466; stroke:none;" d="M165 115L166 116L165 115z"/>
<path style="fill:#b6b7b9; stroke:none;" d="M160.333 116.667C160.278 116.722 160.222 117.778 160.667 117.333C160.722 117.278 160.778 116.222 160.333 116.667z"/>
<path style="fill:#8c8d90; stroke:none;" d="M166 116L167 117L166 116z"/>
<path style="fill:#b0b2b4; stroke:none;" d="M167 116L167 119C167.696 117.446 167.696 117.554 167 116z"/>
<path style="fill:#e6e8e7; stroke:none;" d="M81 117L81 121C81.7102 119.241 81.7102 118.759 81 117z"/>
<path style="fill:#8f9293; stroke:none;" d="M82 117L82 123C82.9511 120.715 82.9511 119.285 82 117z"/>
<path style="fill:#6e6e71; stroke:none;" d="M153 117L154 118L153 117z"/>
<path style="fill:#4c4d4f; stroke:none;" d="M161 117L162 118L161 117z"/>
<path style="fill:#929095; stroke:none;" d="M154 118L155 119L154 118z"/>
<path style="fill:#afafb1; stroke:none;" d="M155 118L155 121C155.696 119.446 155.696 119.554 155 118z"/>
<path style="fill:#a4a5a7; stroke:none;" d="M161 118L162 119L161 118z"/>
<path style="fill:#989a9b; stroke:none;" d="M162.333 119.667C162.278 119.722 162.222 120.778 162.667 120.333C162.722 120.278 162.778 119.222 162.333 119.667z"/>
<path style="fill:#3e4041; stroke:none;" d="M167.333 119.667C167.278 119.722 167.222 120.778 167.667 120.333C167.722 120.278 167.778 119.222 167.333 119.667z"/>
<path style="fill:#a7a8a9; stroke:none;" d="M168.333 119.667C168.278 119.722 168.222 120.778 168.667 120.333C168.722 120.278 168.778 119.222 168.333 119.667z"/>
<path style="fill:#cfd0d2; stroke:none;" d="M81 121L81 126C81.8299 123.97 81.8299 123.03 81 121z"/>
<path style="fill:#b9b9ba; stroke:none;" d="M156 121L157 122L156 121z"/>
<path style="fill:#ccccce; stroke:none;" d="M162.333 121.667C162.278 121.722 162.222 122.778 162.667 122.333C162.722 122.278 162.778 121.222 162.333 121.667z"/>
<path style="fill:#454648; stroke:none;" d="M163 121L164 122L163 121z"/>
<path style="fill:#656668; stroke:none;" d="M168 121L169 122L168 121z"/>
<path style="fill:#919395; stroke:none;" d="M169.333 121.667C169.278 121.722 169.222 122.778 169.667 122.333C169.722 122.278 169.778 121.222 169.333 121.667z"/>
<path style="fill:#dedfe0; stroke:none;" d="M170 121L170 124C170.696 122.446 170.696 122.554 170 121z"/>
<path style="fill:#7b7b7e; stroke:none;" d="M156 122L157 123L156 122z"/>
<path style="fill:#c5c6c7; stroke:none;" d="M157 122L158 123L157 122z"/>
<path style="fill:#848589; stroke:none;" d="M163 122L164 123L163 122z"/>
<path style="fill:#727377; stroke:none;" d="M82 123L82 126C82.6961 124.446 82.6961 124.554 82 123z"/>
<path style="fill:#929396; stroke:none;" d="M157 123L158 124L157 123z"/>
<path style="fill:#c5c6c8; stroke:none;" d="M158 123L158 126C158.696 124.446 158.696 124.554 158 123z"/>
<path style="fill:#dfdfe1; stroke:none;" d="M163.333 123.667C163.278 123.722 163.222 124.778 163.667 124.333C163.722 124.278 163.778 123.222 163.333 123.667z"/>
<path style="fill:#686a6d; stroke:none;" d="M164 123L165 124L164 123z"/>
<path style="fill:#bdbebf; stroke:none;" d="M164.333 124.667C164.278 124.722 164.222 125.778 164.667 125.333C164.722 125.278 164.778 124.222 164.333 124.667z"/>
<path style="fill:#898b8e; stroke:none;" d="M170.333 124.667C170.278 124.722 170.222 125.778 170.667 125.333C170.722 125.278 170.778 124.222 170.333 124.667z"/>
<path style="fill:#b7b8ba; stroke:none;" d="M81.3333 126.667C81.2778 126.722 81.2222 127.778 81.6667 127.333C81.7223 127.278 81.7778 126.222 81.3333 126.667z"/>
<path style="fill:#57595b; stroke:none;" d="M82.3333 126.667C82.2778 126.722 82.2222 127.778 82.6667 127.333C82.7223 127.278 82.7777 126.222 82.3333 126.667z"/>
<path style="fill:#5b5d5f; stroke:none;" d="M158 126L159 127L158 126z"/>
<path style="fill:#b4b6b8; stroke:none;" d="M159 126L160 127L159 126z"/>
<path style="fill:#a1a2a4; stroke:none;" d="M165.333 126.667C165.278 126.722 165.222 127.778 165.667 127.333C165.722 127.278 165.778 126.222 165.333 126.667z"/>
<path style="fill:#9e9ea2; stroke:none;" d="M171 126L172 127L171 126z"/>
<path style="fill:#bfbfc1; stroke:none;" d="M172.333 126.667C172.278 126.722 172.222 127.778 172.667 127.333C172.722 127.278 172.778 126.222 172.333 126.667z"/>
<path style="fill:#787c7e; stroke:none;" d="M159 127L160 128L159 127z"/>
<path style="fill:#cccecf; stroke:none;" d="M160 127L161 128L160 127z"/>
<path style="fill:#656569; stroke:none;" d="M171 127L172 128L171 127z"/>
<path style="fill:#d0d0d1; stroke:none;" d="M80 128L80 131C80.6961 129.446 80.6961 129.554 80 128z"/>
<path style="fill:#979899; stroke:none;" d="M81 128L81 131C81.6961 129.446 81.6961 129.554 81 128z"/>
<path style="fill:#7c7e81; stroke:none;" d="M160.333 128.667C160.278 128.722 160.222 129.778 160.667 129.333C160.722 129.278 160.778 128.222 160.333 128.667z"/>
<path style="fill:#dddddf; stroke:none;" d="M165 128C165.684 129.58 165.805 129.777 167 131C166.316 129.42 166.195 129.223 165 128z"/>
<path style="fill:#8f8f93; stroke:none;" d="M166 128L167 129L166 128z"/>
<path style="fill:#858689; stroke:none;" d="M172.333 128.667C172.278 128.722 172.222 129.778 172.667 129.333C172.722 129.278 172.778 128.222 172.333 128.667z"/>
<path style="fill:#e8e8e9; stroke:none;" d="M79 129L79 136C80.0595 133.466 80.0595 131.534 79 129z"/>
<path style="fill:#eeeeef; stroke:none;" d="M161 129L163 133C163.558 130.692 162.996 130.244 161 129z"/>
<path style="fill:#525356; stroke:none;" d="M167 129L168 130L167 129z"/>
<path style="fill:#9a9b9e; stroke:none;" d="M161 130L162 131L161 130z"/>
<path style="fill:#a5a5a7; stroke:none;" d="M167 130L167 133C167.696 131.446 167.696 131.554 167 130z"/>
<path style="fill:#595b5d; stroke:none;" d="M172 130L173 131L172 130z"/>
<path style="fill:#b9babc; stroke:none;" d="M173 130L174 131L173 130z"/>
<path style="fill:#9b9c9e; stroke:none;" d="M80 131L80 138C81.0595 135.466 81.0595 133.534 80 131z"/>
<path style="fill:#58595b; stroke:none;" d="M81.3333 131.667C81.2778 131.722 81.2222 132.778 81.6667 132.333C81.7223 132.278 81.7778 131.222 81.3333 131.667z"/>
<path style="fill:#838488; stroke:none;" d="M162.333 131.667C162.278 131.722 162.222 132.778 162.667 132.333C162.722 132.278 162.778 131.222 162.333 131.667M173 131L174 132L173 131z"/>
<path style="fill:#a3a3a5; stroke:none;" d="M174.333 131.667C174.278 131.722 174.222 132.778 174.667 132.333C174.722 132.278 174.778 131.222 174.333 131.667z"/>
<path style="fill:#66676b; stroke:none;" d="M168 132L169 133L168 132z"/>
<path style="fill:#afb0b2; stroke:none;" d="M163 133L164 134L163 133z"/>
<path style="fill:#a9aaac; stroke:none;" d="M168 133L169 134L168 133z"/>
<path style="fill:#494a4c; stroke:none;" d="M169 133L170 134L169 133z"/>
<path style="fill:#505052; stroke:none;" d="M174.333 133.667C174.278 133.722 174.222 134.778 174.667 134.333C174.722 134.278 174.778 133.222 174.333 133.667z"/>
<path style="fill:#c0c0c2; stroke:none;" d="M175 133L175 136C175.696 134.446 175.696 134.554 175 133z"/>
<path style="fill:#6d6f72; stroke:none;" d="M163 134L164 135L163 134z"/>
<path style="fill:#babbbe; stroke:none;" d="M164 134L165 135L164 134z"/>
<path style="fill:#aeafb0; stroke:none;" d="M169.333 134.667C169.278 134.722 169.222 135.778 169.667 135.333C169.722 135.278 169.778 134.222 169.333 134.667z"/>
<path style="fill:#7b7d81; stroke:none;" d="M164 135L165 136L164 135z"/>
<path style="fill:#acaeb1; stroke:none;" d="M165 135L166 139C166.393 137.076 166.146 136.64 165 135z"/>
<path style="fill:#cbcbcc; stroke:none;" d="M79 136L79 143C80.0595 140.466 80.0595 138.534 79 136z"/>
<path style="fill:#d9d9da; stroke:none;" d="M169.333 136.667C169.278 136.722 169.222 137.778 169.667 137.333C169.722 137.278 169.778 136.222 169.333 136.667z"/>
<path style="fill:#5e5f62; stroke:none;" d="M170 136L171 137L170 136M175 136L176 137L175 136z"/>
<path style="fill:#b4b5b6; stroke:none;" d="M176 136L177 137L176 136z"/>
<path style="fill:#8d8e91; stroke:none;" d="M170 137L171 138L170 137z"/>
<path style="fill:#848587; stroke:none;" d="M176 137L177 138L176 137z"/>
<path style="fill:#b0b1b2; stroke:none;" d="M177 137L177 140C177.696 138.446 177.696 138.554 177 137z"/>
<path style="fill:#505053; stroke:none;" d="M80 138L80 144C80.9511 141.715 80.9511 140.285 80 138z"/>
<path style="fill:#757579; stroke:none;" d="M171 138L172 139L171 138z"/>
<path style="fill:#b7b9bb; stroke:none;" d="M167 139L168 140L167 139z"/>
<path style="fill:#a6a6a8; stroke:none;" d="M171 139L172 140L171 139z"/>
<path style="fill:#7d8083; stroke:none;" d="M167 140L168 141L167 140z"/>
<path style="fill:#f2f2f2; stroke:none;" d="M171 140C170.634 143.345 171.293 145.104 173 148C173.845 144.96 172.71 142.592 171 140z"/>
<path style="fill:#959597; stroke:none;" d="M172 140L172 143C172.696 141.446 172.696 141.554 172 140z"/>
<path style="fill:#78787b; stroke:none;" d="M177 140L178 141L177 140z"/>
<path style="fill:#a7a9aa; stroke:none;" d="M168 141L169 142L168 141z"/>
<path style="fill:#a1a1a3; stroke:none;" d="M178 141L179 142L178 141z"/>
<path style="fill:#595b5e; stroke:none;" d="M168 142L169 143L168 142z"/>
<path style="fill:#b5b6b7; stroke:none;" d="M169 142L170 143L169 142z"/>
<path style="fill:#626266; stroke:none;" d="M178 142L179 143L178 142z"/>
<path style="fill:#919296; stroke:none;" d="M179 142L179 145C179.696 143.446 179.696 143.554 179 142z"/>
<path style="fill:#8e8e90; stroke:none;" d="M79.3333 143.667C79.2778 143.722 79.2222 144.778 79.6667 144.333C79.7222 144.278 79.7778 143.222 79.3333 143.667z"/>
<path style="fill:#808284; stroke:none;" d="M169 143L170 144L169 143z"/>
<path style="fill:#919294; stroke:none;" d="M173 143L174 144L173 143z"/>
<path style="fill:#d6d7d9; stroke:none;" d="M180 143L180 146C180.696 144.446 180.696 144.554 180 143z"/>
<path style="fill:#c8c8c9; stroke:none;" d="M78 144C77.1898 146.729 77.0208 149.15 77 152C78.2782 149.339 78.8706 146.835 78 144z"/>
<path style="fill:#babbbe; stroke:none;" d="M170 144L171 145L170 144z"/>
<path style="fill:#c1c1c2; stroke:none;" d="M173 144L174 145L173 144z"/>
<path style="fill:#6a6c6e; stroke:none;" d="M174 144L175 145L174 144z"/>
<path style="fill:#565758; stroke:none;" d="M79.3333 145.667C79.2778 145.722 79.2222 146.778 79.6667 146.333C79.7223 146.278 79.7778 145.222 79.3333 145.667z"/>
<path style="fill:#797c7f; stroke:none;" d="M170 145L171 146L170 145z"/>
<path style="fill:#c4c5c8; stroke:none;" d="M171 145L172 146L171 145z"/>
<path style="fill:#cacccc; stroke:none;" d="M174 145C173.787 148.502 174.071 150.891 177 153C176.61 149.875 175.829 147.569 174 145z"/>
<path style="fill:#848689; stroke:none;" d="M171 146L172 147L171 146z"/>
<path style="fill:#84868a; stroke:none;" d="M180 146L181 147L180 146z"/>
<path style="fill:#89898b; stroke:none;" d="M78 147L78 150C78.6961 148.446 78.6961 148.554 78 147z"/>
<path style="fill:#b5b6b7; stroke:none;" d="M172 147L173 148L172 147z"/>
<path style="fill:#75767a; stroke:none;" d="M175 147L176 148L175 147z"/>
<path style="fill:#9a9a9d; stroke:none;" d="M181 147L182 148L181 147z"/>
<path style="fill:#c5c5c7; stroke:none;" d="M182 147L182 150C182.696 148.446 182.696 148.554 182 147z"/>
<path style="fill:#818385; stroke:none;" d="M172 148L173 149L172 148z"/>
<path style="fill:#585c5e; stroke:none;" d="M176 148L177 149L176 148z"/>
<path style="fill:#66666a; stroke:none;" d="M181 148L182 149L181 148z"/>
<path style="fill:#949498; stroke:none;" d="M173 149L174 150L173 149z"/>
<path style="fill:#38393a; stroke:none;" d="M78.3333 150.667C78.2778 150.722 78.2222 151.778 78.6667 151.333C78.7223 151.278 78.7777 150.222 78.3333 150.667z"/>
<path style="fill:#7c7d80; stroke:none;" d="M174.333 150.667C174.278 150.722 174.222 151.778 174.667 151.333C174.722 151.278 174.778 150.222 174.333 150.667z"/>
<path style="fill:#7f8183; stroke:none;" d="M177.333 150.667C177.278 150.722 177.222 151.778 177.667 151.333C177.722 151.278 177.778 150.222 177.333 150.667z"/>
<path style="fill:#909093; stroke:none;" d="M182 150L183 151L182 150z"/>
<path style="fill:#606164; stroke:none;" d="M182 151L183 152L182 151z"/>
<path style="fill:#e2e2e3; stroke:none;" d="M183.667 151.333C183.222 151.778 184.278 151.722 184.333 151.667C184.778 151.222 183.722 151.278 183.667 151.333z"/>
<path style="fill:#9ea0a3; stroke:none;" d="M77 152L77 155C77.6961 153.446 77.6961 153.554 77 152z"/>
<path style="fill:#a3a3a6; stroke:none;" d="M177 152C176.874 154.581 176.954 155.426 179 157C178.595 154.852 178.266 153.738 177 152z"/>
<path style="fill:#808185; stroke:none;" d="M183 152L184 153L183 152z"/>
<path style="fill:#a9a9ab; stroke:none;" d="M184 152L184 155C184.696 153.446 184.696 153.554 184 152z"/>
<path style="fill:#6d6d72; stroke:none;" d="M175 153L176 154L175 153z"/>
<path style="fill:#d4d6d5; stroke:none;" d="M76 154L76 157C76.6961 155.446 76.6961 155.554 76 154z"/>
<path style="fill:#545458; stroke:none;" d="M176 154L177 155L176 154z"/>
<path style="fill:#c2c2c2; stroke:none;" d="M178.333 154.667C178.278 154.722 178.222 155.778 178.667 155.333C178.722 155.278 178.778 154.222 178.333 154.667z"/>
<path style="fill:#8a8c8d; stroke:none;" d="M179 154L179 157C179.696 155.446 179.696 155.554 179 154z"/>
<path style="fill:#6b6d71; stroke:none;" d="M77.3333 155.667C77.2778 155.722 77.2222 156.778 77.6667 156.333C77.7222 156.278 77.7778 155.222 77.3333 155.667z"/>
<path style="fill:#606264; stroke:none;" d="M184 155L185 156L184 155z"/>
<path style="fill:#a0a2a5; stroke:none;" d="M185.333 155.667C185.278 155.722 185.222 156.778 185.667 156.333C185.722 156.278 185.778 155.222 185.333 155.667z"/>
<path style="fill:#cdcdcf; stroke:none;" d="M75 157L75 160C75.6961 158.446 75.6961 158.554 75 157z"/>
<path style="fill:#949498; stroke:none;" d="M76 157L76 160C76.6961 158.446 76.6961 158.554 76 157z"/>
<path style="fill:#333334; stroke:none;" d="M77.3333 157.667C77.2778 157.722 77.2222 158.778 77.6667 158.333C77.7222 158.278 77.7778 157.222 77.3333 157.667z"/>
<path style="fill:#717275; stroke:none;" d="M178.667 157.333C178.222 157.778 179.278 157.722 179.333 157.667C179.778 157.222 178.722 157.278 178.667 157.333z"/>
<path style="fill:#5e6063; stroke:none;" d="M185 157L186 158L185 157z"/>
<path style="fill:#909093; stroke:none;" d="M186.333 157.667C186.278 157.722 186.222 158.778 186.667 158.333C186.722 158.278 186.778 157.222 186.333 157.667z"/>
<path style="fill:#dbdbdc; stroke:none;" d="M187 157L187 160C187.696 158.446 187.696 158.554 187 157z"/>
<path style="fill:#56575a; stroke:none;" d="M179 158C180.223 159.195 180.42 159.316 182 160C180.777 158.805 180.58 158.684 179 158z"/>
<path style="fill:#656568; stroke:none;" d="M186 159L187 160L186 159z"/>
<path style="fill:#9b9e9f; stroke:none;" d="M75.3333 160.667C75.2778 160.722 75.2222 161.778 75.6667 161.333C75.7222 161.278 75.7778 160.222 75.3333 160.667z"/>
<path style="fill:#3b3c3d; stroke:none;" d="M180.667 160.333C180.222 160.778 181.278 160.722 181.333 160.667C181.778 160.222 180.722 160.278 180.667 160.333z"/>
<path style="fill:#a2a3a6; stroke:none;" d="M187 160L188 165C188.651 162.766 188.318 161.926 187 160z"/>
<path style="fill:#7d7f81; stroke:none;" d="M75 162L75 165C75.6961 163.446 75.6961 163.554 75 162z"/>
<path style="fill:#cfcfd0; stroke:none;" d="M74 163L74 166C74.6961 164.446 74.6961 164.554 74 163z"/>
<path style="fill:#c2c3c4; stroke:none;" d="M189.333 163.667C189.278 163.722 189.222 164.778 189.667 164.333C189.722 164.278 189.778 163.222 189.333 163.667z"/>
<path style="fill:#555558; stroke:none;" d="M75.3333 165.667C75.2778 165.722 75.2222 166.778 75.6667 166.333C75.7222 166.278 75.7778 165.222 75.3333 165.667z"/>
<path style="fill:#a8a7aa; stroke:none;" d="M189.333 165.667C189.278 165.722 189.222 166.778 189.667 166.333C189.722 166.278 189.778 165.222 189.333 165.667z"/>
<path style="fill:#909094; stroke:none;" d="M74.3333 166.667C74.2778 166.722 74.2222 167.778 74.6667 167.333C74.7222 167.278 74.7778 166.222 74.3333 166.667z"/>
<path style="fill:#e5e5e6; stroke:none;" d="M72 167C72.3067 169.123 72.3821 169.686 74 171L74 167L72 167z"/>
<path style="fill:#797b7e; stroke:none;" d="M189 167L189 175C190.161 172.23 190.161 169.77 189 167z"/>
<path style="fill:#b5b5b8; stroke:none;" d="M73.3333 168.667C73.2778 168.722 73.2222 169.778 73.6667 169.333C73.7222 169.278 73.7778 168.222 73.3333 168.667z"/>
<path style="fill:#6a6c6f; stroke:none;" d="M74.3333 168.667C74.2778 168.722 74.2222 169.778 74.6667 169.333C74.7222 169.278 74.7778 168.222 74.3333 168.667z"/>
<path style="fill:#cfcfd0; stroke:none;" d="M190 168L190 175C191.059 172.466 191.059 170.534 190 168z"/>
<path style="fill:#8c8e90; stroke:none;" d="M74.6667 170.333C74.2222 170.778 75.2778 170.722 75.3333 170.667C75.7778 170.222 74.7222 170.278 74.6667 170.333z"/>
<path style="fill:#4a4c4f; stroke:none;" d="M76.6667 170.333C76.2222 170.778 77.2778 170.722 77.3333 170.667C77.7778 170.222 76.7222 170.278 76.6667 170.333z"/>
<path style="fill:#e0e2e1; stroke:none;" d="M74 171C75.2484 171.685 75.5484 171.749 77 172C75.7516 171.315 75.4516 171.251 74 171z"/>
<path style="fill:#919396; stroke:none;" d="M77.6667 171.333C77.2222 171.778 78.2778 171.722 78.3333 171.667C78.7778 171.222 77.7222 171.278 77.6667 171.333z"/>
<path style="fill:#57595c; stroke:none;" d="M79 171L80 172L79 171z"/>
<path style="fill:#919295; stroke:none;" d="M79 172C80.2483 172.685 80.5484 172.749 82 173C80.7516 172.315 80.4516 172.251 79 172z"/>
<path style="fill:#d6d6d7; stroke:none;" d="M79 173C80.2483 173.685 80.5484 173.749 82 174C80.7516 173.315 80.4516 173.251 79 173z"/>
<path style="fill:#a7a9ab; stroke:none;" d="M82 173C83.2484 173.685 83.5484 173.749 85 174C83.7516 173.315 83.4516 173.251 82 173z"/>
<path style="fill:#4e5052; stroke:none;" d="M85 173L86 174L85 173z"/>
<path style="fill:#a9a9ac; stroke:none;" d="M85 174L86 175L85 174z"/>
<path style="fill:#6f7073; stroke:none;" d="M86 174L87 175L86 174z"/>
<path style="fill:#a6a6a8; stroke:none;" d="M86 175C87.2484 175.685 87.5484 175.749 89 176C87.7516 175.315 87.4516 175.251 86 175z"/>
<path style="fill:#5e6163; stroke:none;" d="M89 175L90 176L89 175z"/>
<path style="fill:#949597; stroke:none;" d="M189.333 175.667C189.278 175.722 189.222 176.778 189.667 176.333C189.722 176.278 189.778 175.222 189.333 175.667z"/>
<path style="fill:#999b9d; stroke:none;" d="M89.6667 176.333C89.2222 176.778 90.2778 176.722 90.3333 176.667C90.7778 176.222 89.7222 176.278 89.6667 176.333z"/>
<path style="fill:#494a4c; stroke:none;" d="M91 176L92 177L91 176z"/>
<path style="fill:#838487; stroke:none;" d="M91.6667 177.333C91.2222 177.778 92.2778 177.722 92.3333 177.667C92.7778 177.222 91.7222 177.278 91.6667 177.333z"/>
<path style="fill:#4c4d4e; stroke:none;" d="M93 177L94 178L93 177z"/>
<path style="fill:#bbbbbd; stroke:none;" d="M189.333 177.667C189.278 177.722 189.222 178.778 189.667 178.333C189.722 178.278 189.778 177.222 189.333 177.667z"/>
<path style="fill:#d9d9da; stroke:none;" d="M91 178C92.2484 178.685 92.5484 178.749 94 179C92.7517 178.315 92.4516 178.251 91 178z"/>
<path style="fill:#919295; stroke:none;" d="M94 178L95 179L94 178z"/>
<path style="fill:#494a4c; stroke:none;" d="M95 178L96 179L95 178z"/>
<path style="fill:#66666b; stroke:none;" d="M188 178L189 179L188 178z"/>
<path style="fill:#a3a3a6; stroke:none;" d="M95 179L96 180L95 179z"/>
<path style="fill:#565659; stroke:none;" d="M96 179L97 180L96 179z"/>
<path style="fill:#505053; stroke:none;" d="M187 179L188 180L187 179z"/>
<path style="fill:#a6a6aa; stroke:none;" d="M188 179L189 180L188 179z"/>
<path style="fill:#9a9a9b; stroke:none;" d="M96.6667 180.333C96.2222 180.778 97.2778 180.722 97.3333 180.667C97.7778 180.222 96.7222 180.278 96.6667 180.333z"/>
<path style="fill:#626263; stroke:none;" d="M98 180L99 181L98 180z"/>
<path style="fill:#949498; stroke:none;" d="M187 180L188 181L187 180z"/>
<path style="fill:#bcbcbc; stroke:none;" d="M98 181C98.5451 182.635 98.3648 182.455 100 183C99.4549 181.365 99.6352 181.545 98 181z"/>
<path style="fill:#737475; stroke:none;" d="M99 181L100 182L99 181z"/>
<path style="fill:#606265; stroke:none;" d="M186 181L187 182L186 181z"/>
<path style="fill:#8f8f90; stroke:none;" d="M100 182L101 183L100 182z"/>
<path style="fill:#5e6162; stroke:none;" d="M185 182L186 183L185 182z"/>
<path style="fill:#b0b1b3; stroke:none;" d="M186 182L187 183L186 182z"/>
<path style="fill:#ababac; stroke:none;" d="M101 183L102 184L101 183z"/>
<path style="fill:#5b5a5d; stroke:none;" d="M102 183L103 184L102 183z"/>
<path style="fill:#636567; stroke:none;" d="M184 183L185 184L184 183z"/>
<path style="fill:#bcbebe; stroke:none;" d="M185 183L186 184L185 183z"/>
<path style="fill:#acabad; stroke:none;" d="M102 184L103 185L102 184z"/>
<path style="fill:#5e5e61; stroke:none;" d="M103 184L104 185L103 184z"/>
<path style="fill:#5b5b5e; stroke:none;" d="M183 184L184 185L183 184z"/>
<path style="fill:#b1b2b3; stroke:none;" d="M184 184L185 185L184 184z"/>
<path style="fill:#bbbabd; stroke:none;" d="M103 185L104 186L103 185z"/>
<path style="fill:#808185; stroke:none;" d="M104 185L105 186L104 185z"/>
<path style="fill:#808184; stroke:none;" d="M182 185L183 186L182 185z"/>
<path style="fill:#e0e1e1; stroke:none;" d="M183.667 185.333C183.222 185.778 184.278 185.722 184.333 185.667C184.778 185.222 183.722 185.278 183.667 185.333z"/>
<path style="fill:#ebecec; stroke:none;" d="M104 186C104.899 188.124 104.876 188.101 107 189C105.897 187.543 105.457 187.103 104 186z"/>
<path style="fill:#838387; stroke:none;" d="M105 186L106 187L105 186z"/>
<path style="fill:#89898d; stroke:none;" d="M181 186L182 187L181 186z"/>
<path style="fill:#8e8f92; stroke:none;" d="M106 187L107 188L106 187z"/>
<path style="fill:#4e4f50; stroke:none;" d="M107 187L108 188L107 187z"/>
<path style="fill:#424446; stroke:none;" d="M144 187C147.699 188.552 152.017 188 156 188L179 188C175.301 186.448 170.983 187 167 187L144 187z"/>
<path style="fill:#6b6c6f; stroke:none;" d="M179 187L180 188L179 187z"/>
<path style="fill:#96979a; stroke:none;" d="M180 187L181 188L180 187z"/>
<path style="fill:#c6c6c8; stroke:none;" d="M181 187L182 188L181 187z"/>
<path style="fill:#7f8185; stroke:none;" d="M107 188C110.959 189.661 115.74 189 120 189L145 189C141.041 187.339 136.26 188 132 188L107 188z"/>
<path style="fill:#939497; stroke:none;" d="M145 188C148.699 189.552 153.017 189 157 189L179 189C175.301 187.448 170.983 188 167 188L145 188z"/>
<path style="fill:#bfbfc2; stroke:none;" d="M108 189C111.959 190.661 116.74 190 121 190L145 190C141.041 188.339 136.26 189 132 189L108 189z"/>
<path style="fill:#cfcfd1; stroke:none;" d="M145 189C148.699 190.552 153.017 190 157 190L179 190C175.301 188.448 170.983 189 167 189L145 189z"/>
<path style="fill:#e5e6e8; stroke:none;" d="M108 190C114.194 192.599 123.314 191 130 191L177 191C170.806 188.401 161.686 190 155 190L108 190z"/>
<path style="fill:#c9c9cb; stroke:none;" d="M107 191C113.194 193.599 122.314 192 129 192L177 192C170.806 189.401 161.686 191 155 191L107 191z"/>
<path style="fill:#e1e2e0; stroke:none;" d="M177.667 191.333C177.222 191.778 178.278 191.722 178.333 191.667C178.778 191.222 177.722 191.278 177.667 191.333z"/>
<path style="fill:#a8a9aa; stroke:none;" d="M107 192L108 193L107 192z"/>
<path style="fill:#6c6e72; stroke:none;" d="M108 192C114.194 194.599 123.314 193 130 193L178 193C171.806 190.401 162.686 192 156 192L108 192z"/>
<path style="fill:#9d9fa0; stroke:none;" d="M178 192L179 193L178 192z"/>
<path style="fill:#cecfd0; stroke:none;" d="M179 192L180 193L179 192z"/>
<path style="fill:#c1c2c4; stroke:none;" d="M106 193L107 194L106 193z"/>
<path style="fill:#49494b; stroke:none;" d="M107 193L108 194L107 193z"/>
<path style="fill:#1d1d1b; stroke:none;" d="M101 200C102.34 202.93 105.444 205.819 105.98 209C107.362 217.201 94.4438 218.952 91 224L195 224C191.005 218.144 174.932 214.871 182.315 205.138C183.34 203.786 184.662 202.989 186 202L186 200C182.746 198.274 180.251 194.319 176.791 193.318C170.413 191.473 161.624 193 155 193L124 193C119.553 193 113.354 191.907 109.17 193.603C106.098 194.849 103.688 198.077 101 200z"/>
<path style="fill:#9fa1a4; stroke:none;" d="M179 193L180 194L179 193z"/>
<path style="fill:#969799; stroke:none;" d="M106 194L107 195L106 194z"/>
<path style="fill:#6f7174; stroke:none;" d="M179 194L180 195L179 194z"/>
<path style="fill:#adafae; stroke:none;" d="M180.333 194.667C180.278 194.722 180.222 195.778 180.667 195.333C180.722 195.278 180.778 194.222 180.333 194.667z"/>
<path style="fill:#b9b9ba; stroke:none;" d="M105 195L106 196L105 195z"/>
<path style="fill:#636365; stroke:none;" d="M106 195L107 196L106 195z"/>
<path style="fill:#b5b6b7; stroke:none;" d="M104 196L105 197L104 196z"/>
<path style="fill:#727475; stroke:none;" d="M105 196L106 197L105 196z"/>
<path style="fill:#636565; stroke:none;" d="M180 196L181 197L180 196z"/>
<path style="fill:#d8d9d9; stroke:none;" d="M181.667 196.333C181.222 196.778 182.278 196.722 182.333 196.667C182.778 196.222 181.722 196.278 181.667 196.333z"/>
<path style="fill:#b7b7b9; stroke:none;" d="M103 197L104 198L103 197z"/>
<path style="fill:#757778; stroke:none;" d="M104 197L105 198L104 197z"/>
<path style="fill:#5e6061; stroke:none;" d="M181 197L182 198L181 197z"/>
<path style="fill:#a6a8a9; stroke:none;" d="M182 197L183 198L182 197z"/>
<path style="fill:#b8b9ba; stroke:none;" d="M102 198L103 199L102 198z"/>
<path style="fill:#727375; stroke:none;" d="M103 198L104 199L103 198z"/>
<path style="fill:#545558; stroke:none;" d="M182 198L183 199L182 198z"/>
<path style="fill:#acadb1; stroke:none;" d="M183 198L184 199L183 198z"/>
<path style="fill:#e4e4e4; stroke:none;" d="M98 199L98 202C99.0154 200.861 99.3087 200.388 100 199L98 199z"/>
<path style="fill:#a5a5a7; stroke:none;" d="M100 199L101 200L100 199z"/>
<path style="fill:#787a7b; stroke:none;" d="M101 199L102 200L101 199z"/>
<path style="fill:#4c4d4f; stroke:none;" d="M102 199L103 200L102 199z"/>
<path style="fill:#969799; stroke:none;" d="M184.667 199.333C184.222 199.778 185.278 199.722 185.333 199.667C185.778 199.222 184.722 199.278 184.667 199.333z"/>
<path style="fill:#d4d4d5; stroke:none;" d="M186 199L187 202C187.685 200.752 187.749 200.452 188 199L186 199z"/>
<path style="fill:#a9a9aa; stroke:none;" d="M99.3333 200.667C99.2778 200.722 99.2222 201.778 99.6667 201.333C99.7222 201.278 99.7778 200.222 99.3333 200.667z"/>
<path style="fill:#4a4a4c; stroke:none;" d="M100.333 200.667C100.278 200.722 100.222 201.778 100.667 201.333C100.722 201.278 100.778 200.222 100.333 200.667z"/>
<path style="fill:#919194; stroke:none;" d="M186.333 200.667C186.278 200.722 186.222 201.778 186.667 201.333C186.722 201.278 186.778 200.222 186.333 200.667z"/>
<path style="fill:#b5b5b6; stroke:none;" d="M100 202L101 203L100 202z"/>
<path style="fill:#656769; stroke:none;" d="M101 202L102 203L101 202z"/>
<path style="fill:#454649; stroke:none;" d="M184 202L185 203L184 202z"/>
<path style="fill:#9f9fa1; stroke:none;" d="M185 202L186 203L185 202z"/>
<path style="fill:#76787c; stroke:none;" d="M102 203L103 204L102 203z"/>
<path style="fill:#545558; stroke:none;" d="M183 203L184 204L183 203z"/>
<path style="fill:#adafb1; stroke:none;" d="M184 203L185 204L184 203z"/>
<path style="fill:#bfc0c2; stroke:none;" d="M102 204L103 205L102 204z"/>
<path style="fill:#86878a; stroke:none;" d="M103 204L104 205L103 204z"/>
<path style="fill:#66686a; stroke:none;" d="M182 204L183 205L182 204z"/>
<path style="fill:#dcdddd; stroke:none;" d="M183.667 204.333C183.222 204.778 184.278 204.722 184.333 204.667C184.778 204.222 183.722 204.278 183.667 204.333z"/>
<path style="fill:#7e7e81; stroke:none;" d="M104 205L105 206L104 205z"/>
<path style="fill:#4e4e50; stroke:none;" d="M181 205L182 206L181 205z"/>
<path style="fill:#b6b7b8; stroke:none;" d="M182 205L183 206L182 205z"/>
<path style="fill:#d0d0d1; stroke:none;" d="M104.333 206.667C104.278 206.722 104.222 207.778 104.667 207.333C104.722 207.278 104.778 206.222 104.333 206.667z"/>
<path style="fill:#49494b; stroke:none;" d="M105 206L106 207L105 206z"/>
<path style="fill:#9b9b9e; stroke:none;" d="M181 206L182 207L181 206z"/>
<path style="fill:#ebeced; stroke:none;" d="M182 206C181.014 207.479 181 207.203 181 209C182.289 207.557 182.401 207.766 182 206z"/>
<path style="fill:#969699; stroke:none;" d="M105 207L106 208L105 207z"/>
<path style="fill:#7f8184; stroke:none;" d="M180 207L181 208L180 207z"/>
<path style="fill:#d5d6d5; stroke:none;" d="M105 208L105 212C105.71 210.241 105.71 209.759 105 208z"/>
<path style="fill:#828485; stroke:none;" d="M106 208L106 211C106.696 209.446 106.696 209.554 106 208z"/>
<path style="fill:#616366; stroke:none;" d="M179 208L179 211C179.696 209.446 179.696 209.554 179 208z"/>
<path style="fill:#bdc0c0; stroke:none;" d="M180 208L180 212C180.71 210.241 180.71 209.759 180 208z"/>
<path style="fill:#4c4e4e; stroke:none;" d="M106 211L107 212L106 211z"/>
<path style="fill:#c8c8c9; stroke:none;" d="M104 212L105 213L104 212z"/>
<path style="fill:#7c7d80; stroke:none;" d="M105 212L106 213L105 212z"/>
<path style="fill:#6b6d6f; stroke:none;" d="M180 212L181 213L180 212z"/>
<path style="fill:#bbbcbc; stroke:none;" d="M181 212L182 213L181 212z"/>
<path style="fill:#97979a; stroke:none;" d="M104 213L105 214L104 213z"/>
<path style="fill:#838486; stroke:none;" d="M181 213L182 214L181 213z"/>
<path style="fill:#c4c4c5; stroke:none;" d="M182 213L183 214L182 213z"/>
<path style="fill:#aaaaad; stroke:none;" d="M103 214L104 215L103 214z"/>
<path style="fill:#525355; stroke:none;" d="M104 214L105 215L104 214z"/>
<path style="fill:#98989a; stroke:none;" d="M182 214L183 215L182 214z"/>
<path style="fill:#acacaf; stroke:none;" d="M102 215L103 216L102 215z"/>
<path style="fill:#58585c; stroke:none;" d="M103 215L104 216L103 215z"/>
<path style="fill:#a2a3a5; stroke:none;" d="M183 215L184 216L183 215z"/>
<path style="fill:#c4c4c5; stroke:none;" d="M100 216L101 217L100 216z"/>
<path style="fill:#949598; stroke:none;" d="M101 216L102 217L101 216z"/>
<path style="fill:#545557; stroke:none;" d="M102 216L103 217L102 216z"/>
<path style="fill:#b5b5b7; stroke:none;" d="M184.667 216.333C184.222 216.778 185.278 216.722 185.333 216.667C185.778 216.222 184.722 216.278 184.667 216.333z"/>
<path style="fill:#bfbfc1; stroke:none;" d="M99 217L100 218L99 217z"/>
<path style="fill:#7e7f81; stroke:none;" d="M100 217L101 218L100 217z"/>
<path style="fill:#5e5f62; stroke:none;" d="M185 217L186 218L185 217z"/>
<path style="fill:#aeaeaf; stroke:none;" d="M186 217L187 218L186 217z"/>
<path style="fill:#d8d8da; stroke:none;" d="M95 220L98 219C96.2218 218.045 95.9786 218.234 95 220z"/>
<path style="fill:#ababad; stroke:none;" d="M98 218L99 219L98 218z"/>
<path style="fill:#706f74; stroke:none;" d="M99 218L100 219L99 218z"/>
<path style="fill:#59595b; stroke:none;" d="M186 218L187 219L186 218z"/>
<path style="fill:#99999a; stroke:none;" d="M187 218L188 219L187 218z"/>
<path style="fill:#d5d5d6; stroke:none;" d="M188 218C189.248 218.685 189.548 218.749 191 219C189.752 218.315 189.452 218.251 188 218z"/>
<path style="fill:#96969b; stroke:none;" d="M96 219L97 220L96 219z"/>
<path style="fill:#6a6a6f; stroke:none;" d="M97 219L98 220L97 219z"/>
<path style="fill:#5b5c5d; stroke:none;" d="M188 219L189 220L188 219z"/>
<path style="fill:#b6b7b8; stroke:none;" d="M189.667 219.333C189.222 219.778 190.278 219.722 190.333 219.667C190.778 219.222 189.722 219.278 189.667 219.333z"/>
<path style="fill:#ebebeb; stroke:none;" d="M89 220C90.769 220.779 92.0359 220.912 94 221C92.231 220.221 90.9641 220.088 89 220z"/>
<path style="fill:#b2b2b3; stroke:none;" d="M94 220L95 221L94 220z"/>
<path style="fill:#828386; stroke:none;" d="M95 220L96 221L95 220z"/>
<path style="fill:#636466; stroke:none;" d="M190 220L191 221L190 220z"/>
<path style="fill:#cbcbcc; stroke:none;" d="M191.667 220.333C191.222 220.778 192.278 220.722 192.333 220.667C192.778 220.222 191.722 220.278 191.667 220.333z"/>
<path style="fill:#d3d4d5; stroke:none;" d="M87 221L86 225C87.733 223.778 88.1514 222.991 89 221L87 221z"/>
<path style="fill:#96999a; stroke:none;" d="M89 221L89 224C90.0154 222.861 90.3087 222.388 91 221L89 221z"/>
<path style="fill:#707275; stroke:none;" d="M91.6667 221.333C91.2222 221.778 92.2778 221.722 92.3333 221.667C92.7778 221.222 91.7222 221.278 91.6667 221.333z"/>
<path style="fill:#848588; stroke:none;" d="M193.667 221.333C193.222 221.778 194.278 221.722 194.333 221.667C194.778 221.222 193.722 221.278 193.667 221.333z"/>
<path style="fill:#bdbebe; stroke:none;" d="M195.667 221.333C195.222 221.778 196.278 221.722 196.333 221.667C196.778 221.222 195.722 221.278 195.667 221.333z"/>
<path style="fill:#e1e1e1; stroke:none;" d="M197 221C198.749 223.878 199.714 225.935 203 227C201.514 224.971 200.641 223.425 200 221L197 221z"/>
<path style="fill:#c9caca; stroke:none;" d="M88 222C86.6261 224.23 85.394 224.863 83 226C86.6987 227.552 91.0172 227 95 227L117 227L194 227C190.301 225.448 185.983 226 182 226L162 226L90 226L92 225L88 222z"/>
<path style="fill:#7d7e82; stroke:none;" d="M90.3333 222.667C90.2778 222.722 90.2222 223.778 90.6667 223.333C90.7222 223.278 90.7778 222.222 90.3333 222.667z"/>
<path style="fill:#727374; stroke:none;" d="M195.333 222.667C195.278 222.722 195.222 223.778 195.667 223.333C195.722 223.278 195.778 222.222 195.333 222.667z"/>
<path style="fill:#929293; stroke:none;" d="M196.333 222.667C196.278 222.722 196.222 223.778 196.667 223.333C196.722 223.278 196.778 222.222 196.333 222.667z"/>
<path style="fill:#bbbcbe; stroke:none;" d="M197 222C196.064 223.949 195.608 224.55 194 226C196.052 226.874 197.747 226.953 200 227L199 222L197 222z"/>
<path style="fill:#393a3b; stroke:none;" d="M99 223C106.399 226.105 117.993 224 126 224L188 224C180.601 220.895 169.007 223 161 223L99 223z"/>
<path style="fill:#a7a8a9; stroke:none;" d="M92 224C95.6986 225.552 100.017 225 104 225L124 225L197 225C193.301 223.448 188.983 224 185 224L165 224L92 224z"/>
<path style="fill:#d8d8d8; stroke:none;" d="M90 225C93.6986 226.552 98.0172 226 102 226L122 226L196 226C192.301 224.448 187.983 225 184 225L164 225L90 225z"/>
<path style="fill:#b9bbba; stroke:none;" d="M82.6667 227.333C82.2222 227.778 83.2778 227.722 83.3333 227.667C83.7778 227.222 82.7222 227.278 82.6667 227.333z"/>
<path style="fill:#969799; stroke:none;" d="M84 227C87.9586 228.661 92.7397 228 97 228L120 228L203 228C199.041 226.339 194.26 227 190 227L167 227L84 227z"/>
<path style="fill:#b0b1b2; stroke:none;" d="M80 228L80 230C81.6352 229.455 81.4549 229.635 82 228L80 228z"/>
<path style="fill:#656768; stroke:none;" d="M82.6667 228.333C82.2223 228.778 83.2778 228.722 83.3333 228.667C83.7778 228.222 82.7222 228.278 82.6667 228.333z"/>
<path style="fill:#434345; stroke:none;" d="M84 228C87.9586 229.661 92.7397 229 97 229L120 229L203 229C199.041 227.339 194.26 228 190 228L167 228L84 228z"/>
<path style="fill:#a5a6a9; stroke:none;" d="M203.667 228.333C203.222 228.778 204.278 228.722 204.333 228.667C204.778 228.222 203.722 228.278 203.667 228.333z"/>
<path style="fill:#484a4b; stroke:none;" d="M81 229L82 230L81 229z"/>
<path style="fill:#1d1d1b; stroke:none;" d="M82.3179 230.028C78.0465 232.878 78.8913 244.263 84.0586 245.682C92.5593 248.017 104.19 246 113 246L175 246L196 246C198.539 245.996 202.255 246.517 204.397 244.821C207.629 242.261 207.136 230.59 202.852 229.318C194.836 226.938 183.357 229 175 229L113 229L92 229C89.0831 229 84.8822 228.317 82.3179 230.028z"/>
<path style="fill:#919194; stroke:none;" d="M205 229L206 230L205 229z"/>
<path style="fill:#a3a4a6; stroke:none;" d="M79.3333 230.667C79.2777 230.722 79.2222 231.778 79.6667 231.333C79.7222 231.278 79.7778 230.222 79.3333 230.667z"/>
<path style="fill:#6b6e70; stroke:none;" d="M80 230L81 231L80 230z"/>
<path style="fill:#8a8b8d; stroke:none;" d="M206.333 230.667C206.278 230.722 206.222 231.778 206.667 231.333C206.722 231.278 206.778 230.222 206.333 230.667z"/>
<path style="fill:#dededf; stroke:none;" d="M77 231C77 235.423 76.7406 239.739 78 244C79.004 239.82 77.9591 235.374 79 231L77 231z"/>
<path style="fill:#b0b1b5; stroke:none;" d="M207 231L207 243C208.512 239.396 208.512 234.604 207 231z"/>
<path style="fill:#adb0b2; stroke:none;" d="M78 232L78 242C79.3457 238.793 79.3457 235.207 78 232z"/>
<path style="fill:#606467; stroke:none;" d="M79 232L79 242C80.3457 238.793 80.3457 235.207 79 232z"/>
<path style="fill:#535558; stroke:none;" d="M206 232L206 242C207.346 238.793 207.346 235.207 206 232z"/>
<path style="fill:#e2e3e4; stroke:none;" d="M208 232L208 242C209.346 238.793 209.346 235.207 208 232z"/>
<path style="fill:#a6a7aa; stroke:none;" d="M79.3333 242.667C79.2777 242.722 79.2222 243.778 79.6667 243.333C79.7222 243.278 79.7778 242.222 79.3333 242.667z"/>
<path style="fill:#8a8c90; stroke:none;" d="M206 242L206 245C206.696 243.446 206.696 243.554 206 242z"/>
<path style="fill:#717174; stroke:none;" d="M80 244L81 245L80 244z"/>
<path style="fill:#b3b2b3; stroke:none;" d="M80 245L81 246L80 245z"/>
<path style="fill:#6e6f72; stroke:none;" d="M81 245L82 246L81 245z"/>
<path style="fill:#66686d; stroke:none;" d="M204 245L205 246L204 245z"/>
<path style="fill:#9fa1a4; stroke:none;" d="M205 245L206 246L205 245z"/>
<path style="fill:#cbcbcc; stroke:none;" d="M81 246L82 247L81 246z"/>
<path style="fill:#9d9ea1; stroke:none;" d="M82 246L83 247L82 246z"/>
<path style="fill:#2c2d2d; stroke:none;" d="M83 246C86.9586 247.661 91.7397 247 96 247L119 247L203 247C199.041 245.339 194.26 246 190 246L167 246L83 246z"/>
<path style="fill:#bababc; stroke:none;" d="M203 246L203 248C204.635 247.455 204.455 247.635 205 246L203 246z"/>
<path style="fill:#959598; stroke:none;" d="M83 247C86.9586 248.661 91.7397 248 96 248L119 248L203 248C199.041 246.339 194.26 247 190 247L167 247L83 247z"/>
<path style="fill:#dededf; stroke:none;" d="M83 248C86.6987 249.552 91.0172 249 95 249L118 249L199 249C195.301 247.448 190.983 248 187 248L164 248L83 248z"/>
<path style="fill:#e7e7e7; stroke:none;" d="M85 249C88.6987 250.552 93.0172 250 97 250L120 250L173 250C183.249 250 193.894 250.876 204 249C200.473 247.623 196.739 248.894 193 248.985C185.01 249.181 176.993 249 169 249L85 249z"/>
<path style="fill:#929395; stroke:none;" d="M85 250C88.6987 251.552 93.0172 251 97 251L120 251L201 251C197.301 249.448 192.983 250 189 250L166 250L85 250z"/>
<path style="fill:#c9c9cb; stroke:none;" d="M201 250L202 251L201 250z"/>
<path style="fill:#d2d2d3; stroke:none;" d="M83 251L84 252L83 251z"/>
<path style="fill:#919293; stroke:none;" d="M84 251L85 252L84 251z"/>
<path style="fill:#1d1d1b; stroke:none;" d="M85.1698 252.027C82.8198 253.308 81.3485 255.723 78.9606 256.974C76.4167 258.306 72.9376 257.657 71.1798 260.318C69.3506 263.087 70.503 266.918 70.4066 270C70.3119 273.031 69.4829 276.789 72.4336 278.821C75.0039 280.591 79.0557 279.999 82 280L105 280L184 280L204 280C206.992 279.999 211.052 280.576 213.682 278.821C216.508 276.936 215.994 272.947 216 270C216.007 266.624 216.92 261.245 213.682 259.024C211.463 257.502 208.475 257.795 206.17 256.262C203.653 254.59 202.06 252.103 198.985 251.318C190.901 249.254 180.334 251 172 251L115 251L95 251C91.8589 251 88.0334 250.466 85.1698 252.027z"/>
<path style="fill:#747577; stroke:none;" d="M201 251L202 252L201 251z"/>
<path style="fill:#c6c7c9; stroke:none;" d="M202 251L203 252L202 251z"/>
<path style="fill:#b1b2b3; stroke:none;" d="M82 252L82 254C83.6352 253.455 83.4549 253.635 84 252L82 252z"/>
<path style="fill:#808284; stroke:none;" d="M202 252L203 253L202 252z"/>
<path style="fill:#929496; stroke:none;" d="M203 253L204 254L203 253z"/>
<path style="fill:#77787a; stroke:none;" d="M82 254L83 255L82 254z"/>
<path style="fill:#b2b3b4; stroke:none;" d="M204 254L205 255L204 254z"/>
<path style="fill:#e2e2e3; stroke:none;" d="M75 255C77.0521 255.874 78.7472 255.953 81 256C78.9479 255.126 77.2528 255.047 75 255z"/>
<path style="fill:#8c8d8f; stroke:none;" d="M81 255L82 256L81 255z"/>
<path style="fill:#747677; stroke:none;" d="M204 255L205 256L204 255z"/>
<path style="fill:#d0d0d2; stroke:none;" d="M205.667 255.333C205.222 255.778 206.278 255.722 206.333 255.667C206.778 255.222 205.722 255.278 205.667 255.333z"/>
<path style="fill:#e6e6e6; stroke:none;" d="M207 255C208.769 255.779 210.036 255.912 212 256C210.231 255.221 208.964 255.088 207 255z"/>
<path style="fill:#adaeb0; stroke:none;" d="M71 259C74.0542 257.886 76.7482 257.167 80 257C76.5391 255.562 73.2201 255.858 71 259z"/>
<path style="fill:#737376; stroke:none;" d="M80 256L81 257L80 256z"/>
<path style="fill:#67686b; stroke:none;" d="M205 256L206 257L205 256z"/>
<path style="fill:#b6b6b8; stroke:none;" d="M206 256C208.052 256.874 209.747 256.953 212 257C209.948 256.126 208.253 256.047 206 256z"/>
<path style="fill:#5d5d60; stroke:none;" d="M74 257C76.0521 257.874 77.7472 257.953 80 258C77.9479 257.126 76.2528 257.047 74 257z"/>
<path style="fill:#5d5e60; stroke:none;" d="M207 257C208.769 257.779 210.036 257.912 212 258C210.231 257.221 208.964 257.088 207 257z"/>
<path style="fill:#a9a9ab; stroke:none;" d="M212.667 257.333C212.222 257.778 213.278 257.722 213.333 257.667C213.778 257.222 212.722 257.278 212.667 257.333z"/>
<path style="fill:#e5e5e5; stroke:none;" d="M214 257C215.103 258.457 215.543 258.897 217 260C216.101 257.876 216.124 257.899 214 257z"/>
<path style="fill:#cdcdcf; stroke:none;" d="M70 258L71 259L70 258z"/>
<path style="fill:#828385; stroke:none;" d="M214 258L215 259L214 258z"/>
<path style="fill:#77787b; stroke:none;" d="M70.3333 259.667C70.2778 259.722 70.2222 260.778 70.6667 260.333C70.7222 260.278 70.7778 259.222 70.3333 259.667z"/>
<path style="fill:#898a8c; stroke:none;" d="M215 259L216 260L215 259z"/>
<path style="fill:#ebebec; stroke:none;" d="M67 260L67 276C69.0396 271.139 67.7606 265.206 69 260L67 260z"/>
<path style="fill:#a5a5a8; stroke:none;" d="M69.3333 260.667C69.2778 260.722 69.2222 261.778 69.6667 261.333C69.7222 261.278 69.7778 260.222 69.3333 260.667z"/>
<path style="fill:#949598; stroke:none;" d="M216.333 260.667C216.278 260.722 216.222 261.778 216.667 261.333C216.722 261.278 216.778 260.222 216.333 260.667z"/>
<path style="fill:#c2c2c5; stroke:none;" d="M68 261L68 276C69.7404 271.852 69.7404 265.148 68 261z"/>
<path style="fill:#d1d1d1; stroke:none;" d="M217.333 261.667C217.278 261.722 217.222 262.778 217.667 262.333C217.722 262.278 217.778 261.222 217.333 261.667z"/>
<path style="fill:#838488; stroke:none;" d="M69 262L69 276C70.6668 272.028 70.6668 265.972 69 262z"/>
<path style="fill:#6a6b6e; stroke:none;" d="M216 262L216 276C217.667 272.028 217.667 265.972 216 262z"/>
<path style="fill:#bcbcbd; stroke:none;" d="M217 263L217 276C218.591 272.209 218.591 266.791 217 263z"/>
<path style="fill:#e5e4e5; stroke:none;" d="M218 263L218 275C219.512 271.396 219.512 266.604 218 263z"/>
<path style="fill:#363739; stroke:none;" d="M70 267L70 271C70.7102 269.241 70.7102 268.759 70 267z"/>
<path style="fill:#cecece; stroke:none;" d="M69.3333 276.667C69.2778 276.722 69.2222 277.778 69.6667 277.333C69.7222 277.278 69.7778 276.222 69.3333 276.667z"/>
<path style="fill:#b2b3b5; stroke:none;" d="M216.333 276.667C216.278 276.722 216.222 277.778 216.667 277.333C216.722 277.278 216.778 276.222 216.333 276.667z"/>
<path style="fill:#757578; stroke:none;" d="M70 277L71 278L70 277z"/>
<path style="fill:#a5a5a6; stroke:none;" d="M70 278L71 279L70 278z"/>
<path style="fill:#85888a; stroke:none;" d="M215 278L216 279L215 278z"/>
<path style="fill:#9f9fa0; stroke:none;" d="M71 279L72 280L71 279z"/>
<path style="fill:#6e6f71; stroke:none;" d="M72 279L73 280L72 279z"/>
<path style="fill:#595b5c; stroke:none;" d="M213 279L214 280L213 279z"/>
<path style="fill:#8d9292; stroke:none;" d="M214 279L215 280L214 279z"/>
<path style="fill:#c0c2c3; stroke:none;" d="M215 279L216 280L215 279z"/>
<path style="fill:#a0a1a1; stroke:none;" d="M72.6667 280.333C72.2222 280.778 73.2778 280.722 73.3333 280.667C73.7778 280.222 72.7222 280.278 72.6667 280.333z"/>
<path style="fill:#6e7071; stroke:none;" d="M74.6667 280.333C74.2222 280.778 75.2778 280.722 75.3333 280.667C75.7778 280.222 74.7222 280.278 74.6667 280.333z"/>
<path style="fill:#525354; stroke:none;" d="M76 280C77.2483 280.685 77.5484 280.749 79 281C77.7516 280.315 77.4516 280.251 76 280z"/>
<path style="fill:#6a6b6e; stroke:none;" d="M79 280C82.9586 281.661 87.7396 281 92 281L118 281L207 281C203.041 279.339 198.26 280 194 280L168 280L79 280z"/>
<path style="fill:#555659; stroke:none;" d="M207 280C208.506 280.683 209.315 280.826 211 281C209.494 280.317 208.685 280.174 207 280z"/>
<path style="fill:#adaeaf; stroke:none;" d="M74 281C77.9586 282.661 82.7397 282 87 282L112 282L180 282C190.369 282 203.037 283.945 213 281C208.744 279.978 203.457 281 199 281L169 281L74 281z"/>
<path style="fill:#eeefef; stroke:none;" d="M212 283C213.457 281.897 213.897 281.457 215 280C212.876 280.899 212.899 280.876 212 283z"/>
<path style="fill:#e0e0e0; stroke:none;" d="M74 282C78.2151 283.769 83.4645 283 88 283L116 283L212 283C207.785 281.231 202.536 282 198 282L170 282L74 282z"/>
</svg>
