<?xml version="1.0" standalone="no"?>
<!DOCTYPE svg PUBLIC "-//W3C//DTD SVG 20010904//EN"
 "http://www.w3.org/TR/2001/REC-SVG-20010904/DTD/svg10.dtd">
<svg version="1.0" xmlns="http://www.w3.org/2000/svg"
 width="565.000000pt" height="565.000000pt" viewBox="0 0 565.000000 565.000000"
 preserveAspectRatio="xMidYMid meet">
<metadata>
Created by potrace 1.11, written by Peter Selinger 2001-2013
</metadata>
<g transform="translate(0.000000,565.000000) scale(0.100000,-0.100000)"
fill="#000000" stroke="none">
<path d="M1391 5629 c-52 -18 -123 -68 -169 -119 -85 -94 -162 -309 -197 -555
-3 -22 -8 -53 -10 -70 -13 -76 -16 -119 -20 -250 l-4 -140 -28 1 c-290 12
-611 193 -726 408 -17 32 -45 68 -62 78 -63 40 -165 -2 -165 -67 0 -93 140
-288 282 -393 130 -95 335 -183 488 -208 14 -2 34 -6 45 -8 22 -5 128 -18 160
-20 22 -1 27 -25 40 -195 4 -46 8 -92 10 -101 15 -76 24 -494 12 -506 -4 -4
-17 -2 -30 4 -24 12 -144 49 -186 57 -55 11 -152 6 -208 -10 -212 -61 -369
-271 -378 -505 -5 -149 39 -264 141 -367 180 -180 444 -192 608 -28 81 81 166
254 197 400 7 33 15 63 19 68 9 10 144 -125 289 -289 165 -187 390 -392 536
-489 193 -129 338 -164 490 -120 104 30 213 124 262 227 30 61 43 72 44 36 6
-232 94 -552 294 -1073 80 -206 172 -431 198 -482 26 -49 90 -60 148 -26 38
23 46 48 40 123 -14 154 -6 504 14 625 9 56 15 90 20 115 72 372 142 527 274
607 58 35 100 37 144 9 55 -37 90 -168 91 -340 0 -143 -17 -455 -28 -506 -9
-40 -25 -122 -31 -160 -4 -19 -15 -84 -26 -145 -39 -223 -40 -236 -29 -271 12
-36 50 -69 92 -79 62 -16 102 41 147 210 17 62 24 95 36 170 9 48 23 174 24
215 4 88 96 425 163 595 91 232 245 464 331 500 58 24 105 -12 123 -95 6 -29
6 -189 0 -240 -12 -106 -20 -157 -43 -275 -14 -71 -26 -137 -28 -145 -73 -320
-109 -490 -134 -640 -18 -102 -34 -193 -37 -203 -3 -11 -7 -29 -9 -40 -2 -12
-7 -44 -11 -72 -5 -27 -8 -97 -9 -155 0 -93 3 -111 26 -160 15 -30 41 -69 59
-87 31 -32 121 -82 156 -87 11 -2 25 -24 38 -62 49 -136 139 -222 283 -274 55
-20 77 -22 175 -18 103 4 119 7 181 38 126 62 158 131 93 196 -46 46 -95 46
-165 3 -101 -63 -216 -45 -309 48 -30 29 -52 58 -50 64 2 7 28 19 58 28 136
42 275 142 318 228 40 78 44 165 12 257 -34 99 -92 157 -181 179 -162 42 -332
-76 -408 -283 -21 -59 -37 -127 -33 -147 5 -26 -16 -12 -32 20 -18 39 -16 104
8 217 8 41 18 99 21 129 3 30 8 57 9 60 2 3 7 31 10 61 3 30 8 66 10 80 3 14
10 54 16 90 6 36 27 142 46 235 19 94 37 181 40 195 3 14 17 72 30 130 29 121
32 134 40 175 3 17 9 49 14 71 23 100 30 264 17 374 -15 129 -86 261 -166 308
-67 39 -154 38 -236 -3 -108 -55 -260 -228 -370 -423 -25 -45 -47 -82 -48 -82
-2 0 -3 8 -4 18 -2 31 -41 131 -67 175 -33 56 -91 114 -140 140 -31 16 -59 22
-117 22 -67 0 -83 -4 -150 -37 -118 -58 -233 -178 -300 -310 -74 -146 -144
-423 -166 -651 -3 -39 -10 -64 -15 -59 -15 15 -108 281 -153 437 -53 185 -84
337 -89 432 -3 73 -3 73 23 74 14 0 33 2 41 4 8 1 35 6 59 10 82 12 216 56
306 100 114 55 198 134 247 232 30 61 33 76 33 153 0 97 -15 138 -73 196 -103
103 -257 136 -393 84 -164 -62 -335 -263 -410 -483 l-28 -82 -2 58 c-1 31 -2
60 -3 65 -1 4 -5 25 -10 47 -38 189 -263 285 -445 190 -176 -93 -188 -243 -30
-389 61 -57 161 -121 204 -132 38 -9 39 -21 6 -63 -63 -80 -170 -98 -285 -47
-152 67 -298 186 -537 437 -238 251 -365 376 -437 433 l-62 49 0 196 c0 108
-2 212 -4 231 -2 19 -7 80 -11 135 -3 55 -8 118 -11 140 -2 22 -6 76 -10 120
-3 44 -7 86 -9 92 -6 17 21 30 77 36 71 9 208 59 294 108 91 52 233 186 288
272 82 126 126 264 131 412 7 172 -38 289 -160 410 -130 131 -296 177 -444
124z m224 -208 c55 -25 113 -86 144 -151 23 -49 26 -67 25 -160 0 -82 -5 -118
-23 -165 -49 -135 -160 -276 -272 -348 -60 -38 -184 -84 -252 -93 l-44 -6 3
93 c3 119 11 197 30 309 13 74 16 88 45 205 46 188 106 291 189 324 40 16 112
12 155 -8z m-760 -2100 c98 -30 176 -71 171 -90 -3 -9 -10 -43 -16 -76 -26
-129 -88 -270 -148 -337 -117 -130 -309 -92 -388 77 -12 28 -24 66 -27 85 -8
79 31 193 87 252 96 101 194 128 321 89z m2643 -264 c8 -6 21 -27 29 -45 51
-122 -129 -254 -406 -296 l-43 -7 6 28 c23 97 126 246 203 294 78 49 170 60
211 26z m-901 -193 c20 -13 60 -111 49 -121 -5 -5 -61 23 -98 49 -15 10 -41
37 -59 59 l-32 41 59 -7 c32 -4 69 -13 81 -21z m2651 -2050 c42 -29 16 -122
-48 -172 -28 -21 -94 -56 -126 -66 -20 -6 -21 -3 -17 31 9 90 47 180 85 207
29 20 77 20 106 0z"/>
<path d="M3241 5044 c0 -11 3 -14 6 -6 3 7 2 16 -1 19 -3 4 -6 -2 -5 -13z"/>
<path d="M3216 4980 c-28 -65 -90 -138 -157 -190 -85 -64 -111 -94 -148 -166
-38 -74 -64 -184 -87 -356 l-18 -132 -20 85 c-23 94 -53 146 -118 208 -42 38
-234 171 -249 171 -4 0 -4 -15 0 -32 11 -47 6 -109 -18 -222 -28 -132 -27
-167 6 -219 35 -56 194 -213 337 -332 96 -80 151 -187 191 -372 l18 -81 21 19
c40 38 125 101 161 119 34 17 105 19 182 6 173 -32 320 -38 373 -17 19 8 73
39 119 69 46 30 100 63 119 72 l35 17 -55 25 c-30 14 -97 54 -148 88 -109 73
-165 100 -220 104 -43 3 -175 -17 -225 -34 -52 -19 -14 8 75 51 107 51 197
105 233 138 40 36 87 134 137 286 44 132 81 220 132 310 l28 50 -27 -35 c-44
-54 -112 -119 -142 -135 -16 -7 -74 -32 -129 -54 -244 -97 -334 -155 -426
-271 -27 -33 -26 -32 5 25 18 33 44 78 58 100 38 62 38 115 1 215 l-31 85 6
175 c4 96 8 196 9 223 2 26 0 47 -4 47 -3 0 -14 -18 -24 -40z"/>
<path d="M1890 2021 c-14 -5 -57 -22 -96 -39 -40 -16 -87 -33 -105 -38 -19 -4
-37 -9 -41 -10 -5 -1 -11 -2 -15 -3 -4 0 10 -13 32 -28 22 -14 86 -71 143
-127 56 -55 116 -109 133 -120 41 -25 135 -42 227 -40 41 1 70 -2 65 -6 -4 -4
-50 -17 -100 -29 -51 -13 -127 -36 -170 -51 -66 -25 -86 -38 -134 -89 -32 -34
-85 -112 -125 -183 -64 -113 -156 -249 -198 -291 -30 -30 -7 -19 44 22 49 39
143 81 179 81 23 0 237 44 315 65 69 18 160 64 203 103 69 62 75 64 26 7 -28
-33 -60 -69 -72 -79 -56 -50 -77 -128 -59 -210 18 -80 11 -140 -41 -341 -29
-110 -54 -209 -57 -220 -2 -11 5 -3 16 18 40 72 128 148 232 200 158 78 228
176 324 456 24 68 44 125 46 126 2 2 3 -39 4 -91 1 -133 32 -192 172 -337 58
-59 106 -106 107 -105 2 2 5 27 8 55 3 29 27 103 52 165 26 62 52 133 58 158
9 41 7 50 -22 110 -40 80 -125 207 -224 333 -107 137 -139 238 -138 429 0 78
-2 86 -17 80 -9 -5 -51 -25 -92 -45 -125 -62 -133 -62 -370 23 -149 53 -254
70 -310 51z"/>
</g>
</svg>
